<?xml version="1.0" encoding="UTF-8"?>
<svg xmlns="http://www.w3.org/2000/svg" xmlns:xlink="http://www.w3.org/1999/xlink" width="400pt" height="400pt" viewBox="0 0 400 400" version="1.1">
<g id="surface2711203">
<path style="fill:none;stroke-width:1;stroke-linecap:round;stroke-linejoin:round;stroke:rgb(0%,0%,0%);stroke-opacity:1;stroke-miterlimit:10;" d="M 200 200 L 200 200 "/>
<path style="fill:none;stroke-width:1;stroke-linecap:round;stroke-linejoin:round;stroke:rgb(0%,0%,0%);stroke-opacity:1;stroke-miterlimit:10;" d="M 200 200 L 200 200 "/>
<path style="fill:none;stroke-width:1;stroke-linecap:round;stroke-linejoin:round;stroke:rgb(0%,0%,0%);stroke-opacity:1;stroke-miterlimit:10;" d="M 200 200 L 200 200 "/>
<path style="fill:none;stroke-width:1;stroke-linecap:round;stroke-linejoin:round;stroke:rgb(0%,0%,0%);stroke-opacity:1;stroke-miterlimit:10;" d="M 200 200 L 200 200 "/>
<path style="fill:none;stroke-width:1;stroke-linecap:round;stroke-linejoin:round;stroke:rgb(0%,0%,0%);stroke-opacity:1;stroke-miterlimit:10;" d="M 200 200 L 200 200 "/>
<path style="fill:none;stroke-width:1;stroke-linecap:round;stroke-linejoin:round;stroke:rgb(0%,0%,0%);stroke-opacity:1;stroke-miterlimit:10;" d="M 200 200 L 200 200 "/>
<path style="fill:none;stroke-width:1;stroke-linecap:round;stroke-linejoin:round;stroke:rgb(0%,0%,0%);stroke-opacity:1;stroke-miterlimit:10;" d="M 200 200 L 200 200 "/>
<path style="fill:none;stroke-width:1;stroke-linecap:round;stroke-linejoin:round;stroke:rgb(0%,0%,0%);stroke-opacity:1;stroke-miterlimit:10;" d="M 200 200 L 200 200 "/>
<path style="fill:none;stroke-width:1;stroke-linecap:round;stroke-linejoin:round;stroke:rgb(0%,0%,0%);stroke-opacity:1;stroke-miterlimit:10;" d="M 200 200 L 200 200 "/>
<path style="fill:none;stroke-width:1;stroke-linecap:round;stroke-linejoin:round;stroke:rgb(0%,0%,0%);stroke-opacity:1;stroke-miterlimit:10;" d="M 200 200 L 200 200 "/>
<path style="fill:none;stroke-width:1;stroke-linecap:round;stroke-linejoin:round;stroke:rgb(0%,0%,0%);stroke-opacity:1;stroke-miterlimit:10;" d="M 200 200 L 200 200 "/>
<path style="fill:none;stroke-width:1;stroke-linecap:round;stroke-linejoin:round;stroke:rgb(0%,0%,0%);stroke-opacity:1;stroke-miterlimit:10;" d="M 200 200 L 200 200 "/>
<path style="fill:none;stroke-width:1;stroke-linecap:round;stroke-linejoin:round;stroke:rgb(0%,0%,0%);stroke-opacity:1;stroke-miterlimit:10;" d="M 200 200 L 200 200 "/>
<path style="fill:none;stroke-width:1;stroke-linecap:round;stroke-linejoin:round;stroke:rgb(0%,0%,0%);stroke-opacity:1;stroke-miterlimit:10;" d="M 200 200 L 200 200 "/>
<path style="fill:none;stroke-width:1;stroke-linecap:round;stroke-linejoin:round;stroke:rgb(0%,0%,0%);stroke-opacity:1;stroke-miterlimit:10;" d="M 200 200 L 200 200 "/>
<path style="fill:none;stroke-width:1;stroke-linecap:round;stroke-linejoin:round;stroke:rgb(0%,0%,0%);stroke-opacity:1;stroke-miterlimit:10;" d="M 200 200 L 200 200 "/>
<path style="fill:none;stroke-width:1;stroke-linecap:round;stroke-linejoin:round;stroke:rgb(0%,0%,0%);stroke-opacity:1;stroke-miterlimit:10;" d="M 200 200 L 200 200 "/>
<path style="fill:none;stroke-width:1;stroke-linecap:round;stroke-linejoin:round;stroke:rgb(0%,0%,0%);stroke-opacity:1;stroke-miterlimit:10;" d="M 200 200 L 200 200 "/>
<path style="fill:none;stroke-width:1;stroke-linecap:round;stroke-linejoin:round;stroke:rgb(0%,0%,0%);stroke-opacity:1;stroke-miterlimit:10;" d="M 200 200 L 200 200 "/>
<path style="fill:none;stroke-width:1;stroke-linecap:round;stroke-linejoin:round;stroke:rgb(0%,0%,0%);stroke-opacity:1;stroke-miterlimit:10;" d="M 200 200 L 200 200 "/>
<path style="fill:none;stroke-width:1;stroke-linecap:round;stroke-linejoin:round;stroke:rgb(0%,0%,0%);stroke-opacity:1;stroke-miterlimit:10;" d="M 200 200 L 200 200 "/>
<path style="fill:none;stroke-width:1;stroke-linecap:round;stroke-linejoin:round;stroke:rgb(0%,0%,0%);stroke-opacity:1;stroke-miterlimit:10;" d="M 200 200 L 200 200 "/>
<path style="fill:none;stroke-width:1;stroke-linecap:round;stroke-linejoin:round;stroke:rgb(0%,0%,0%);stroke-opacity:1;stroke-miterlimit:10;" d="M 200 200 L 200 200 "/>
<path style="fill:none;stroke-width:1;stroke-linecap:round;stroke-linejoin:round;stroke:rgb(0%,0%,0%);stroke-opacity:1;stroke-miterlimit:10;" d="M 200 200 L 200 200 "/>
<path style="fill:none;stroke-width:1;stroke-linecap:round;stroke-linejoin:round;stroke:rgb(0%,0%,0%);stroke-opacity:1;stroke-miterlimit:10;" d="M 200 200 L 200 200 "/>
<path style="fill:none;stroke-width:1;stroke-linecap:round;stroke-linejoin:round;stroke:rgb(0%,0%,0%);stroke-opacity:1;stroke-miterlimit:10;" d="M 200 200 L 200 200 "/>
<path style="fill:none;stroke-width:1;stroke-linecap:round;stroke-linejoin:round;stroke:rgb(0%,0%,0%);stroke-opacity:1;stroke-miterlimit:10;" d="M 200 200 L 200 200 "/>
<path style="fill:none;stroke-width:1;stroke-linecap:round;stroke-linejoin:round;stroke:rgb(0%,0%,0%);stroke-opacity:1;stroke-miterlimit:10;" d="M 200 200 L 200 200 "/>
<path style="fill:none;stroke-width:1;stroke-linecap:round;stroke-linejoin:round;stroke:rgb(0%,0%,0%);stroke-opacity:1;stroke-miterlimit:10;" d="M 200 200 L 200 200 "/>
<path style="fill:none;stroke-width:1;stroke-linecap:round;stroke-linejoin:round;stroke:rgb(0%,0%,0%);stroke-opacity:1;stroke-miterlimit:10;" d="M 200 200 L 200 200 "/>
<path style="fill:none;stroke-width:1;stroke-linecap:round;stroke-linejoin:round;stroke:rgb(0%,0%,0%);stroke-opacity:1;stroke-miterlimit:10;" d="M 200 200 L 200 200 "/>
<path style="fill:none;stroke-width:1;stroke-linecap:round;stroke-linejoin:round;stroke:rgb(0%,0%,0%);stroke-opacity:1;stroke-miterlimit:10;" d="M 200 200 L 200 200 "/>
<path style="fill:none;stroke-width:1;stroke-linecap:round;stroke-linejoin:round;stroke:rgb(0%,0%,0%);stroke-opacity:1;stroke-miterlimit:10;" d="M 200 200 L 200 200 "/>
<path style="fill:none;stroke-width:1;stroke-linecap:round;stroke-linejoin:round;stroke:rgb(0%,0%,0%);stroke-opacity:1;stroke-miterlimit:10;" d="M 200 200 L 200 200 "/>
<path style="fill:none;stroke-width:1;stroke-linecap:round;stroke-linejoin:round;stroke:rgb(0%,0%,0%);stroke-opacity:1;stroke-miterlimit:10;" d="M 200 200 L 200 200 "/>
<path style="fill:none;stroke-width:1;stroke-linecap:round;stroke-linejoin:round;stroke:rgb(0%,0%,0%);stroke-opacity:1;stroke-miterlimit:10;" d="M 200 200 L 200 200 "/>
<path style="fill:none;stroke-width:1;stroke-linecap:round;stroke-linejoin:round;stroke:rgb(0%,0%,0%);stroke-opacity:1;stroke-miterlimit:10;" d="M 200 200 L 200 200 "/>
<path style="fill:none;stroke-width:1;stroke-linecap:round;stroke-linejoin:round;stroke:rgb(0%,0%,0%);stroke-opacity:1;stroke-miterlimit:10;" d="M 200 200 L 200 200 "/>
<path style="fill:none;stroke-width:1;stroke-linecap:round;stroke-linejoin:round;stroke:rgb(0%,0%,0%);stroke-opacity:1;stroke-miterlimit:10;" d="M 200 200 L 200 200 "/>
<path style="fill:none;stroke-width:1;stroke-linecap:round;stroke-linejoin:round;stroke:rgb(0%,0%,0%);stroke-opacity:1;stroke-miterlimit:10;" d="M 200 200 L 200 200 "/>
<path style="fill:none;stroke-width:1;stroke-linecap:round;stroke-linejoin:round;stroke:rgb(0%,0%,0%);stroke-opacity:1;stroke-miterlimit:10;" d="M 200.003906 200 C 200 200 200 200 200 199.996094 C 200 200 200 200 199.996094 200 C 200 200 200 200 200 200.003906 C 200 200 200 200 200.003906 200 "/>
<path style="fill:none;stroke-width:1;stroke-linecap:round;stroke-linejoin:round;stroke:rgb(0%,0%,0%);stroke-opacity:1;stroke-miterlimit:10;" d="M 200.003906 200 C 200.003906 200 200 200 200 199.996094 C 200 199.996094 200 200 199.996094 200 C 199.996094 200 200 200 200 200.003906 C 200 200.003906 200 200 200.003906 200 "/>
<path style="fill:none;stroke-width:1;stroke-linecap:round;stroke-linejoin:round;stroke:rgb(0%,0%,0%);stroke-opacity:1;stroke-miterlimit:10;" d="M 200.003906 200.003906 C 200.003906 200 200.003906 200 200.003906 199.996094 C 200 199.996094 200 199.996094 199.996094 199.996094 C 199.996094 200 199.996094 200 199.996094 200.003906 C 200 200.003906 200 200.003906 200.003906 200.003906 "/>
<path style="fill:none;stroke-width:1;stroke-linecap:round;stroke-linejoin:round;stroke:rgb(0%,0%,0%);stroke-opacity:1;stroke-miterlimit:10;" d="M 200 200.003906 C 200.003906 200.003906 200.003906 200 200.003906 200 C 200.003906 199.996094 200 199.996094 200 199.996094 C 199.996094 199.996094 199.996094 200 199.996094 200 C 199.996094 200.003906 200 200.003906 200 200.003906 "/>
<path style="fill:none;stroke-width:1;stroke-linecap:round;stroke-linejoin:round;stroke:rgb(0%,0%,0%);stroke-opacity:1;stroke-miterlimit:10;" d="M 200 200.003906 C 200.003906 200.003906 200.003906 200 200.003906 200 C 200.003906 199.996094 200 199.996094 200 199.996094 C 199.996094 199.996094 199.996094 200 199.996094 200 C 199.996094 200.003906 200 200.003906 200 200.003906 "/>
<path style="fill:none;stroke-width:1;stroke-linecap:round;stroke-linejoin:round;stroke:rgb(0%,0%,0%);stroke-opacity:1;stroke-miterlimit:10;" d="M 200 200.007812 C 200 200.003906 200.003906 200.003906 200.007812 200 C 200.003906 200 200.003906 199.996094 200 199.992188 C 200 199.996094 199.996094 199.996094 199.992188 200 C 199.996094 200 199.996094 200.003906 200 200.007812 "/>
<path style="fill:none;stroke-width:1;stroke-linecap:round;stroke-linejoin:round;stroke:rgb(0%,0%,0%);stroke-opacity:1;stroke-miterlimit:10;" d="M 199.996094 200.007812 C 200 200.003906 200.003906 200.003906 200.007812 200.003906 C 200.003906 200 200.003906 199.996094 200.003906 199.992188 C 200 199.996094 199.996094 199.996094 199.992188 199.996094 C 199.996094 200 199.996094 200.003906 199.996094 200.007812 "/>
<path style="fill:none;stroke-width:1;stroke-linecap:round;stroke-linejoin:round;stroke:rgb(0%,0%,0%);stroke-opacity:1;stroke-miterlimit:10;" d="M 199.996094 200.007812 C 200 200.007812 200.003906 200.003906 200.007812 200.003906 C 200.007812 200 200.003906 199.996094 200.003906 199.992188 C 200 199.992188 199.996094 199.996094 199.992188 199.996094 C 199.992188 200 199.996094 200.003906 199.996094 200.007812 "/>
<path style="fill:none;stroke-width:1;stroke-linecap:round;stroke-linejoin:round;stroke:rgb(0%,0%,0%);stroke-opacity:1;stroke-miterlimit:10;" d="M 199.992188 200.007812 C 199.996094 200.007812 200.003906 200.007812 200.007812 200.007812 C 200.007812 200.003906 200.007812 199.996094 200.007812 199.992188 C 200.003906 199.992188 199.996094 199.992188 199.992188 199.992188 C 199.992188 199.996094 199.992188 200.003906 199.992188 200.007812 "/>
<path style="fill:none;stroke-width:1;stroke-linecap:round;stroke-linejoin:round;stroke:rgb(0%,0%,0%);stroke-opacity:1;stroke-miterlimit:10;" d="M 199.988281 200.007812 C 199.996094 200.007812 200 200.011719 200.007812 200.011719 C 200.007812 200.003906 200.011719 200 200.011719 199.992188 C 200.003906 199.992188 200 199.988281 199.992188 199.988281 C 199.992188 199.996094 199.988281 200 199.988281 200.007812 "/>
<path style="fill:none;stroke-width:1;stroke-linecap:round;stroke-linejoin:round;stroke:rgb(0%,0%,0%);stroke-opacity:1;stroke-miterlimit:10;" d="M 199.984375 200.003906 C 199.992188 200.007812 199.996094 200.011719 200.003906 200.015625 C 200.007812 200.007812 200.011719 200.003906 200.015625 199.996094 C 200.007812 199.992188 200.003906 199.988281 199.996094 199.984375 C 199.992188 199.992188 199.988281 199.996094 199.984375 200.003906 "/>
<path style="fill:none;stroke-width:1;stroke-linecap:round;stroke-linejoin:round;stroke:rgb(0%,0%,0%);stroke-opacity:1;stroke-miterlimit:10;" d="M 199.980469 200 C 199.988281 200.007812 199.992188 200.011719 200 200.019531 C 200.007812 200.011719 200.011719 200.007812 200.019531 200 C 200.011719 199.992188 200.007812 199.988281 200 199.980469 C 199.992188 199.988281 199.988281 199.992188 199.980469 200 "/>
<path style="fill:none;stroke-width:1;stroke-linecap:round;stroke-linejoin:round;stroke:rgb(0%,0%,0%);stroke-opacity:1;stroke-miterlimit:10;" d="M 199.976562 199.992188 C 199.984375 200.003906 199.988281 200.011719 199.992188 200.023438 C 200.003906 200.015625 200.011719 200.011719 200.023438 200.007812 C 200.015625 199.996094 200.011719 199.988281 200.007812 199.976562 C 199.996094 199.984375 199.988281 199.988281 199.976562 199.992188 "/>
<path style="fill:none;stroke-width:1;stroke-linecap:round;stroke-linejoin:round;stroke:rgb(0%,0%,0%);stroke-opacity:1;stroke-miterlimit:10;" d="M 199.976562 199.984375 C 199.980469 200 199.984375 200.011719 199.984375 200.023438 C 200 200.019531 200.011719 200.015625 200.023438 200.015625 C 200.019531 200 200.015625 199.988281 200.015625 199.976562 C 200 199.980469 199.988281 199.984375 199.976562 199.984375 "/>
<path style="fill:none;stroke-width:1;stroke-linecap:round;stroke-linejoin:round;stroke:rgb(0%,0%,0%);stroke-opacity:1;stroke-miterlimit:10;" d="M 199.976562 199.976562 C 199.976562 199.992188 199.976562 200.007812 199.976562 200.023438 C 199.992188 200.023438 200.007812 200.023438 200.023438 200.023438 C 200.023438 200.007812 200.023438 199.992188 200.023438 199.976562 C 200.007812 199.976562 199.992188 199.976562 199.976562 199.976562 "/>
<path style="fill:none;stroke-width:1;stroke-linecap:round;stroke-linejoin:round;stroke:rgb(0%,0%,0%);stroke-opacity:1;stroke-miterlimit:10;" d="M 199.976562 199.964844 C 199.972656 199.984375 199.96875 200.003906 199.964844 200.023438 C 199.984375 200.027344 200.003906 200.03125 200.023438 200.035156 C 200.027344 200.015625 200.03125 199.996094 200.035156 199.976562 C 200.015625 199.972656 199.996094 199.96875 199.976562 199.964844 "/>
<path style="fill:none;stroke-width:1;stroke-linecap:round;stroke-linejoin:round;stroke:rgb(0%,0%,0%);stroke-opacity:1;stroke-miterlimit:10;" d="M 199.984375 199.953125 C 199.972656 199.972656 199.960938 199.996094 199.953125 200.015625 C 199.972656 200.027344 199.996094 200.039062 200.015625 200.046875 C 200.027344 200.027344 200.039062 200.003906 200.046875 199.984375 C 200.027344 199.972656 200.003906 199.960938 199.984375 199.953125 "/>
<path style="fill:none;stroke-width:1;stroke-linecap:round;stroke-linejoin:round;stroke:rgb(0%,0%,0%);stroke-opacity:1;stroke-miterlimit:10;" d="M 199.996094 199.9375 C 199.976562 199.960938 199.957031 199.984375 199.9375 200.003906 C 199.960938 200.023438 199.984375 200.042969 200.003906 200.0625 C 200.023438 200.039062 200.042969 200.015625 200.0625 199.996094 C 200.039062 199.976562 200.015625 199.957031 199.996094 199.9375 "/>
<path style="fill:none;stroke-width:1;stroke-linecap:round;stroke-linejoin:round;stroke:rgb(0%,0%,0%);stroke-opacity:1;stroke-miterlimit:10;" d="M 200.011719 199.925781 C 199.984375 199.945312 199.957031 199.96875 199.925781 199.988281 C 199.945312 200.015625 199.96875 200.042969 199.988281 200.074219 C 200.015625 200.054688 200.042969 200.03125 200.074219 200.011719 C 200.054688 199.984375 200.03125 199.957031 200.011719 199.925781 "/>
<path style="fill:none;stroke-width:1;stroke-linecap:round;stroke-linejoin:round;stroke:rgb(0%,0%,0%);stroke-opacity:1;stroke-miterlimit:10;" d="M 200.035156 199.917969 C 199.996094 199.933594 199.957031 199.949219 199.917969 199.964844 C 199.933594 200.003906 199.949219 200.042969 199.964844 200.082031 C 200.003906 200.066406 200.042969 200.050781 200.082031 200.035156 C 200.066406 199.996094 200.050781 199.957031 200.035156 199.917969 "/>
<path style="fill:none;stroke-width:1;stroke-linecap:round;stroke-linejoin:round;stroke:rgb(0%,0%,0%);stroke-opacity:1;stroke-miterlimit:10;" d="M 200.066406 199.914062 C 200.015625 199.917969 199.964844 199.925781 199.914062 199.933594 C 199.917969 199.984375 199.925781 200.035156 199.933594 200.085938 C 199.984375 200.082031 200.035156 200.074219 200.085938 200.066406 C 200.082031 200.015625 200.074219 199.964844 200.066406 199.914062 "/>
<path style="fill:none;stroke-width:1;stroke-linecap:round;stroke-linejoin:round;stroke:rgb(0%,0%,0%);stroke-opacity:1;stroke-miterlimit:10;" d="M 200.105469 199.917969 C 200.042969 199.910156 199.980469 199.902344 199.917969 199.894531 C 199.910156 199.957031 199.902344 200.019531 199.894531 200.082031 C 199.957031 200.089844 200.019531 200.097656 200.082031 200.105469 C 200.089844 200.042969 200.097656 199.980469 200.105469 199.917969 "/>
<path style="fill:none;stroke-width:1;stroke-linecap:round;stroke-linejoin:round;stroke:rgb(0%,0%,0%);stroke-opacity:1;stroke-miterlimit:10;" d="M 200.148438 199.933594 C 200.074219 199.90625 200.003906 199.878906 199.933594 199.851562 C 199.90625 199.925781 199.878906 199.996094 199.851562 200.066406 C 199.925781 200.09375 199.996094 200.121094 200.066406 200.148438 C 200.09375 200.074219 200.121094 200.003906 200.148438 199.933594 "/>
<path style="fill:none;stroke-width:1;stroke-linecap:round;stroke-linejoin:round;stroke:rgb(0%,0%,0%);stroke-opacity:1;stroke-miterlimit:10;" d="M 200.191406 199.964844 C 200.117188 199.914062 200.039062 199.859375 199.964844 199.808594 C 199.914062 199.882812 199.859375 199.960938 199.808594 200.035156 C 199.882812 200.085938 199.960938 200.140625 200.035156 200.191406 C 200.085938 200.117188 200.140625 200.039062 200.191406 199.964844 "/>
<path style="fill:none;stroke-width:1;stroke-linecap:round;stroke-linejoin:round;stroke:rgb(0%,0%,0%);stroke-opacity:1;stroke-miterlimit:10;" d="M 200.234375 200.015625 C 200.164062 199.929688 200.089844 199.847656 200.015625 199.765625 C 199.929688 199.835938 199.847656 199.910156 199.765625 199.984375 C 199.835938 200.070312 199.910156 200.152344 199.984375 200.234375 C 200.070312 200.164062 200.152344 200.089844 200.234375 200.015625 "/>
<path style="fill:none;stroke-width:1;stroke-linecap:round;stroke-linejoin:round;stroke:rgb(0%,0%,0%);stroke-opacity:1;stroke-miterlimit:10;" d="M 200.273438 200.085938 C 200.210938 199.96875 200.148438 199.847656 200.085938 199.726562 C 199.96875 199.789062 199.847656 199.851562 199.726562 199.914062 C 199.789062 200.03125 199.851562 200.152344 199.914062 200.273438 C 200.03125 200.210938 200.152344 200.148438 200.273438 200.085938 "/>
<path style="fill:none;stroke-width:1;stroke-linecap:round;stroke-linejoin:round;stroke:rgb(0%,0%,0%);stroke-opacity:1;stroke-miterlimit:10;" d="M 200.296875 200.183594 C 200.257812 200.023438 200.222656 199.863281 200.183594 199.703125 C 200.023438 199.742188 199.863281 199.777344 199.703125 199.816406 C 199.742188 199.976562 199.777344 200.136719 199.816406 200.296875 C 199.976562 200.257812 200.136719 200.222656 200.296875 200.183594 "/>
<path style="fill:none;stroke-width:1;stroke-linecap:round;stroke-linejoin:round;stroke:rgb(0%,0%,0%);stroke-opacity:1;stroke-miterlimit:10;" d="M 200.292969 200.304688 C 200.296875 200.105469 200.300781 199.90625 200.304688 199.707031 C 200.105469 199.703125 199.90625 199.699219 199.707031 199.695312 C 199.703125 199.894531 199.699219 200.09375 199.695312 200.292969 C 199.894531 200.296875 200.09375 200.300781 200.292969 200.304688 "/>
<path style="fill:none;stroke-width:1;stroke-linecap:round;stroke-linejoin:round;stroke:rgb(0%,0%,0%);stroke-opacity:1;stroke-miterlimit:10;" d="M 200.257812 200.441406 C 200.320312 200.210938 200.382812 199.976562 200.441406 199.742188 C 200.210938 199.679688 199.976562 199.617188 199.742188 199.558594 C 199.679688 199.789062 199.617188 200.023438 199.558594 200.257812 C 199.789062 200.320312 200.023438 200.382812 200.257812 200.441406 "/>
<path style="fill:none;stroke-width:1;stroke-linecap:round;stroke-linejoin:round;stroke:rgb(0%,0%,0%);stroke-opacity:1;stroke-miterlimit:10;" d="M 200.171875 200.597656 C 200.3125 200.339844 200.457031 200.085938 200.597656 199.828125 C 200.339844 199.6875 200.085938 199.542969 199.828125 199.402344 C 199.6875 199.660156 199.542969 199.914062 199.402344 200.171875 C 199.660156 200.3125 199.914062 200.457031 200.171875 200.597656 "/>
<path style="fill:none;stroke-width:1;stroke-linecap:round;stroke-linejoin:round;stroke:rgb(0%,0%,0%);stroke-opacity:1;stroke-miterlimit:10;" d="M 200.027344 200.753906 C 200.269531 200.492188 200.511719 200.234375 200.753906 199.972656 C 200.492188 199.730469 200.234375 199.488281 199.972656 199.246094 C 199.730469 199.507812 199.488281 199.765625 199.246094 200.027344 C 199.507812 200.269531 199.765625 200.511719 200.027344 200.753906 "/>
<path style="fill:none;stroke-width:1;stroke-linecap:round;stroke-linejoin:round;stroke:rgb(0%,0%,0%);stroke-opacity:1;stroke-miterlimit:10;" d="M 199.808594 200.894531 C 200.171875 200.660156 200.53125 200.425781 200.894531 200.191406 C 200.660156 199.828125 200.425781 199.46875 200.191406 199.105469 C 199.828125 199.339844 199.46875 199.574219 199.105469 199.808594 C 199.339844 200.171875 199.574219 200.53125 199.808594 200.894531 "/>
<path style="fill:none;stroke-width:1;stroke-linecap:round;stroke-linejoin:round;stroke:rgb(0%,0%,0%);stroke-opacity:1;stroke-miterlimit:10;" d="M 199.515625 200.996094 C 200.007812 200.824219 200.5 200.65625 200.996094 200.484375 C 200.824219 199.992188 200.65625 199.5 200.484375 199.003906 C 199.992188 199.175781 199.5 199.34375 199.003906 199.515625 C 199.175781 200.007812 199.34375 200.5 199.515625 200.996094 "/>
<path style="fill:none;stroke-width:1;stroke-linecap:round;stroke-linejoin:round;stroke:rgb(0%,0%,0%);stroke-opacity:1;stroke-miterlimit:10;" d="M 199.136719 201.027344 C 199.765625 200.972656 200.398438 200.917969 201.027344 200.863281 C 200.972656 200.234375 200.917969 199.601562 200.863281 198.972656 C 200.234375 199.027344 199.601562 199.082031 198.972656 199.136719 C 199.027344 199.765625 199.082031 200.398438 199.136719 201.027344 "/>
<path style="fill:none;stroke-width:1;stroke-linecap:round;stroke-linejoin:round;stroke:rgb(0%,0%,0%);stroke-opacity:1;stroke-miterlimit:10;" d="M 198.679688 200.953125 C 199.4375 201.078125 200.195312 201.199219 200.953125 201.320312 C 201.078125 200.5625 201.199219 199.804688 201.320312 199.046875 C 200.5625 198.921875 199.804688 198.800781 199.046875 198.679688 C 198.921875 199.4375 198.800781 200.195312 198.679688 200.953125 "/>
<path style="fill:none;stroke-width:1;stroke-linecap:round;stroke-linejoin:round;stroke:rgb(0%,0%,0%);stroke-opacity:1;stroke-miterlimit:10;" d="M 198.167969 200.734375 C 199.023438 201.101562 199.878906 201.46875 200.734375 201.832031 C 201.101562 200.976562 201.46875 200.121094 201.832031 199.265625 C 200.976562 198.898438 200.121094 198.53125 199.265625 198.167969 C 198.898438 199.023438 198.53125 199.878906 198.167969 200.734375 "/>
<path style="fill:none;stroke-width:1;stroke-linecap:round;stroke-linejoin:round;stroke:rgb(0%,0%,0%);stroke-opacity:1;stroke-miterlimit:10;" d="M 197.628906 200.328125 C 198.527344 201.007812 199.425781 201.691406 200.328125 202.371094 C 201.007812 201.472656 201.691406 200.574219 202.371094 199.671875 C 201.472656 198.992188 200.574219 198.308594 199.671875 197.628906 C 198.992188 198.527344 198.308594 199.425781 197.628906 200.328125 "/>
<path style="fill:none;stroke-width:1;stroke-linecap:round;stroke-linejoin:round;stroke:rgb(0%,0%,0%);stroke-opacity:1;stroke-miterlimit:10;" d="M 197.113281 199.6875 C 197.96875 200.753906 198.828125 201.820312 199.6875 202.886719 C 200.753906 202.03125 201.820312 201.171875 202.886719 200.3125 C 202.03125 199.246094 201.171875 198.179688 200.3125 197.113281 C 199.246094 197.96875 198.179688 198.828125 197.113281 199.6875 "/>
<path style="fill:none;stroke-width:1;stroke-linecap:round;stroke-linejoin:round;stroke:rgb(0%,0%,0%);stroke-opacity:1;stroke-miterlimit:10;" d="M 196.695312 198.78125 C 197.390625 200.289062 198.085938 201.796875 198.78125 203.304688 C 200.289062 202.609375 201.796875 201.914062 203.304688 201.21875 C 202.609375 199.710938 201.914062 198.203125 201.21875 196.695312 C 199.710938 197.390625 198.203125 198.085938 196.695312 198.78125 "/>
<path style="fill:none;stroke-width:1;stroke-linecap:round;stroke-linejoin:round;stroke:rgb(0%,0%,0%);stroke-opacity:1;stroke-miterlimit:10;" d="M 196.472656 197.59375 C 196.84375 199.574219 197.21875 201.550781 197.59375 203.527344 C 199.574219 203.15625 201.550781 202.78125 203.527344 202.40625 C 203.15625 200.425781 202.78125 198.449219 202.40625 196.472656 C 200.425781 196.84375 198.449219 197.21875 196.472656 197.59375 "/>
<path style="fill:none;stroke-width:1;stroke-linecap:round;stroke-linejoin:round;stroke:rgb(0%,0%,0%);stroke-opacity:1;stroke-miterlimit:10;" d="M 196.554688 196.132812 C 196.414062 198.570312 196.273438 201.007812 196.132812 203.445312 C 198.570312 203.585938 201.007812 203.726562 203.445312 203.867188 C 203.585938 201.429688 203.726562 198.992188 203.867188 196.554688 C 201.429688 196.414062 198.992188 196.273438 196.554688 196.132812 "/>
<path style="fill:none;stroke-width:1;stroke-linecap:round;stroke-linejoin:round;stroke:rgb(0%,0%,0%);stroke-opacity:1;stroke-miterlimit:10;" d="M 197.085938 194.4375 C 196.203125 197.261719 195.320312 200.089844 194.4375 202.914062 C 197.261719 203.796875 200.089844 204.679688 202.914062 205.5625 C 203.796875 202.738281 204.679688 199.910156 205.5625 197.085938 C 202.738281 196.203125 199.910156 195.320312 197.085938 194.4375 "/>
<path style="fill:none;stroke-width:1;stroke-linecap:round;stroke-linejoin:round;stroke:rgb(0%,0%,0%);stroke-opacity:1;stroke-miterlimit:10;" d="M 198.207031 192.597656 C 196.335938 195.664062 194.46875 198.726562 192.597656 201.792969 C 195.664062 203.664062 198.726562 205.53125 201.792969 207.402344 C 203.664062 204.335938 205.53125 201.273438 207.402344 198.207031 C 204.335938 196.335938 201.273438 194.46875 198.207031 192.597656 "/>
<path style="fill:none;stroke-width:1;stroke-linecap:round;stroke-linejoin:round;stroke:rgb(0%,0%,0%);stroke-opacity:1;stroke-miterlimit:10;" d="M 200.066406 190.765625 C 196.964844 193.820312 193.867188 196.875 190.765625 199.933594 C 193.820312 203.035156 196.875 206.132812 199.933594 209.234375 C 203.035156 206.179688 206.132812 203.125 209.234375 200.066406 C 206.179688 196.964844 203.125 193.867188 200.066406 190.765625 "/>
<path style="fill:none;stroke-width:1;stroke-linecap:round;stroke-linejoin:round;stroke:rgb(0%,0%,0%);stroke-opacity:1;stroke-miterlimit:10;" d="M 202.796875 189.152344 C 198.25 191.835938 193.703125 194.519531 189.152344 197.203125 C 191.835938 201.75 194.519531 206.296875 197.203125 210.847656 C 201.75 208.164062 206.296875 205.480469 210.847656 202.796875 C 208.164062 198.25 205.480469 193.703125 202.796875 189.152344 "/>
<path style="fill:none;stroke-width:1;stroke-linecap:round;stroke-linejoin:round;stroke:rgb(0%,0%,0%);stroke-opacity:1;stroke-miterlimit:10;" d="M 206.480469 188.0625 C 200.339844 189.882812 194.203125 191.703125 188.0625 193.519531 C 189.882812 199.660156 191.703125 205.796875 193.519531 211.9375 C 199.660156 210.117188 205.796875 208.296875 211.9375 206.480469 C 210.117188 200.339844 208.296875 194.203125 206.480469 188.0625 "/>
<path style="fill:none;stroke-width:1;stroke-linecap:round;stroke-linejoin:round;stroke:rgb(0%,0%,0%);stroke-opacity:1;stroke-miterlimit:10;" d="M 211.132812 187.863281 C 203.375 188.195312 195.617188 188.53125 187.863281 188.867188 C 188.195312 196.625 188.53125 204.382812 188.867188 212.136719 C 196.625 211.804688 204.382812 211.46875 212.136719 211.132812 C 211.804688 203.375 211.46875 195.617188 211.132812 187.863281 "/>
<path style="fill:none;stroke-width:1;stroke-linecap:round;stroke-linejoin:round;stroke:rgb(0%,0%,0%);stroke-opacity:1;stroke-miterlimit:10;" d="M 216.667969 188.996094 C 207.445312 187.105469 198.21875 185.21875 188.996094 183.332031 C 187.105469 192.554688 185.21875 201.78125 183.332031 211.003906 C 192.554688 212.894531 201.78125 214.78125 211.003906 216.667969 C 212.894531 207.445312 214.78125 198.21875 216.667969 188.996094 "/>
<path style="fill:none;stroke-width:1;stroke-linecap:round;stroke-linejoin:round;stroke:rgb(0%,0%,0%);stroke-opacity:1;stroke-miterlimit:10;" d="M 222.847656 191.953125 C 212.550781 187.019531 202.253906 182.085938 191.953125 177.152344 C 187.019531 187.449219 182.085938 197.746094 177.152344 208.046875 C 187.449219 212.980469 197.746094 217.914062 208.046875 222.847656 C 212.980469 212.550781 217.914062 202.253906 222.847656 191.953125 "/>
<path style="fill:none;stroke-width:1;stroke-linecap:round;stroke-linejoin:round;stroke:rgb(0%,0%,0%);stroke-opacity:1;stroke-miterlimit:10;" d="M 229.246094 197.253906 C 218.582031 188.421875 207.917969 179.589844 197.253906 170.753906 C 188.421875 181.417969 179.589844 192.082031 170.753906 202.746094 C 181.417969 211.578125 192.082031 220.410156 202.746094 229.246094 C 211.578125 218.582031 220.410156 207.917969 229.246094 197.253906 "/>
<path style="fill:none;stroke-width:1;stroke-linecap:round;stroke-linejoin:round;stroke:rgb(0%,0%,0%);stroke-opacity:1;stroke-miterlimit:10;" d="M 235.214844 205.371094 C 225.265625 191.84375 215.320312 178.316406 205.371094 164.785156 C 191.84375 174.734375 178.316406 184.679688 164.785156 194.628906 C 174.734375 208.15625 184.679688 221.683594 194.628906 235.214844 C 208.15625 225.265625 221.683594 215.320312 235.214844 205.371094 "/>
<path style="fill:none;stroke-width:1;stroke-linecap:round;stroke-linejoin:round;stroke:rgb(0%,0%,0%);stroke-opacity:1;stroke-miterlimit:10;" d="M 239.847656 216.675781 C 232.125 197.835938 224.402344 178.992188 216.675781 160.152344 C 197.835938 167.875 178.992188 175.597656 160.152344 183.324219 C 167.875 202.164062 175.597656 221.007812 183.324219 239.847656 C 202.164062 232.125 221.007812 224.402344 239.847656 216.675781 "/>
<path style="fill:none;stroke-width:1;stroke-linecap:round;stroke-linejoin:round;stroke:rgb(0%,0%,0%);stroke-opacity:1;stroke-miterlimit:10;" d="M 241.976562 231.339844 C 238.429688 206.902344 234.886719 182.464844 231.339844 158.023438 C 206.902344 161.570312 182.464844 165.113281 158.023438 168.660156 C 161.570312 193.097656 165.113281 217.535156 168.660156 241.976562 C 193.097656 238.429688 217.535156 234.886719 241.976562 231.339844 "/>
<path style="fill:none;stroke-width:1;stroke-linecap:round;stroke-linejoin:round;stroke:rgb(0%,0%,0%);stroke-opacity:1;stroke-miterlimit:10;" d="M 240.164062 249.214844 C 243.183594 219.421875 246.199219 189.628906 249.214844 159.835938 C 219.421875 156.816406 189.628906 153.800781 159.835938 150.785156 C 156.816406 180.578125 153.800781 210.371094 150.785156 240.164062 C 180.578125 243.183594 210.371094 246.199219 240.164062 249.214844 "/>
<path style="fill:none;stroke-width:1;stroke-linecap:round;stroke-linejoin:round;stroke:rgb(0%,0%,0%);stroke-opacity:1;stroke-miterlimit:10;" d="M 232.777344 269.714844 C 245.089844 235.550781 257.402344 201.386719 269.714844 167.222656 C 235.550781 154.910156 201.386719 142.597656 167.222656 130.285156 C 154.910156 164.449219 142.597656 198.613281 130.285156 232.777344 C 164.449219 245.089844 198.613281 257.402344 232.777344 269.714844 "/>
<path style="fill:none;stroke-width:1;stroke-linecap:round;stroke-linejoin:round;stroke:rgb(0%,0%,0%);stroke-opacity:1;stroke-miterlimit:10;" d="M 218.058594 291.65625 C 242.589844 255.085938 267.125 218.515625 291.65625 181.941406 C 255.085938 157.410156 218.515625 132.875 181.941406 108.34375 C 157.410156 144.914062 132.875 181.484375 108.34375 218.058594 C 144.914062 242.589844 181.484375 267.125 218.058594 291.65625 "/>
<path style="fill:none;stroke-width:1;stroke-linecap:round;stroke-linejoin:round;stroke:rgb(0%,0%,0%);stroke-opacity:1;stroke-miterlimit:10;" d="M 194.285156 313.144531 C 233.90625 277.332031 273.523438 241.523438 313.144531 205.714844 C 277.332031 166.09375 241.523438 126.476562 205.714844 86.855469 C 166.09375 122.667969 126.476562 158.476562 86.855469 194.285156 C 122.667969 233.90625 158.476562 273.523438 194.285156 313.144531 "/>
<path style="fill:none;stroke-width:1;stroke-linecap:round;stroke-linejoin:round;stroke:rgb(0%,0%,0%);stroke-opacity:1;stroke-miterlimit:10;" d="M 160 331.429688 C 217.144531 300.953125 274.285156 270.476562 331.429688 240 C 300.953125 182.855469 270.476562 125.714844 240 68.570312 C 182.855469 99.046875 125.714844 129.523438 68.570312 160 C 99.046875 217.144531 129.523438 274.285156 160 331.429688 "/>
<path style="fill:none;stroke-width:1;stroke-linecap:round;stroke-linejoin:round;stroke:rgb(0%,0%,0%);stroke-opacity:1;stroke-miterlimit:10;" d="M 114.285156 342.855469 C 190.476562 323.808594 266.667969 304.761719 342.855469 285.714844 C 323.808594 209.523438 304.761719 133.332031 285.714844 57.144531 C 209.523438 76.191406 133.332031 95.238281 57.144531 114.285156 C 76.191406 190.476562 95.238281 266.667969 114.285156 342.855469 "/>
<path style="fill:none;stroke-width:1;stroke-linecap:round;stroke-linejoin:round;stroke:rgb(0%,0%,0%);stroke-opacity:1;stroke-miterlimit:10;" d="M 57.144531 342.855469 C 152.382812 342.855469 247.617188 342.855469 342.855469 342.855469 C 342.855469 247.617188 342.855469 152.382812 342.855469 57.144531 C 247.617188 57.144531 152.382812 57.144531 57.144531 57.144531 C 57.144531 152.382812 57.144531 247.617188 57.144531 342.855469 "/>
</g>
</svg>
