<?xml version="1.0" encoding="UTF-8"?>
<svg xmlns="http://www.w3.org/2000/svg" xmlns:xlink="http://www.w3.org/1999/xlink" width="560pt" height="420pt" viewBox="0 0 560 420" version="1.1">
<g id="surface1396297">
<path style="fill:none;stroke-width:1;stroke-linecap:round;stroke-linejoin:round;stroke:rgb(74.509804%,74.509804%,74.509804%);stroke-opacity:1;stroke-miterlimit:10;" d="M 0 420 C 1866.667969 420 3733.332031 420 5600 420 C 5600 -1135.554688 5600 -2691.109375 5600 -4246.667969 C 3733.332031 -4246.667969 1866.667969 -4246.667969 0 -4246.667969 C 0 -2691.109375 0 -1135.554688 0 420 "/>
<path style=" stroke:none;fill-rule:nonzero;fill:rgb(74.509804%,74.509804%,74.509804%);fill-opacity:1;" d="M 0 420 C 1866.667969 420 3733.332031 420 5600 420 C 5600 -1135.554688 5600 -2691.109375 5600 -4246.667969 C 3733.332031 -4246.667969 1866.667969 -4246.667969 0 -4246.667969 C 0 -2691.109375 0 -1135.554688 0 420 Z M 0 420 "/>
<path style="fill:none;stroke-width:1;stroke-linecap:round;stroke-linejoin:round;stroke:rgb(100%,100%,100%);stroke-opacity:1;stroke-miterlimit:10;" d="M -28 420 C -11.199219 420 5.601562 420 22.398438 420 C 22.398438 406 22.398438 392 22.398438 378 C 5.601562 378 -11.199219 378 -28 378 C -28 392 -28 406 -28 420 "/>
<path style=" stroke:none;fill-rule:nonzero;fill:rgb(100%,100%,100%);fill-opacity:1;" d="M -28 420 C -11.199219 420 5.601562 420 22.398438 420 C 22.398438 406 22.398438 392 22.398438 378 C 5.601562 378 -11.199219 378 -28 378 C -28 392 -28 406 -28 420 Z M -28 420 "/>
<path style="fill:none;stroke-width:1;stroke-linecap:round;stroke-linejoin:round;stroke:rgb(0%,0%,0%);stroke-opacity:1;stroke-miterlimit:10;" d="M 28 420 C 44.800781 420 61.601562 420 78.398438 420 C 78.398438 406 78.398438 392 78.398438 378 C 61.601562 378 44.800781 378 28 378 C 28 392 28 406 28 420 "/>
<path style=" stroke:none;fill-rule:nonzero;fill:rgb(0%,0%,0%);fill-opacity:1;" d="M 28 420 C 44.800781 420 61.601562 420 78.398438 420 C 78.398438 406 78.398438 392 78.398438 378 C 61.601562 378 44.800781 378 28 378 C 28 392 28 406 28 420 Z M 28 420 "/>
<path style="fill:none;stroke-width:1;stroke-linecap:round;stroke-linejoin:round;stroke:rgb(100%,100%,100%);stroke-opacity:1;stroke-miterlimit:10;" d="M 84 420 C 100.800781 420 117.601562 420 134.398438 420 C 134.398438 406 134.398438 392 134.398438 378 C 117.601562 378 100.800781 378 84 378 C 84 392 84 406 84 420 "/>
<path style=" stroke:none;fill-rule:nonzero;fill:rgb(100%,100%,100%);fill-opacity:1;" d="M 84 420 C 100.800781 420 117.601562 420 134.398438 420 C 134.398438 406 134.398438 392 134.398438 378 C 117.601562 378 100.800781 378 84 378 C 84 392 84 406 84 420 Z M 84 420 "/>
<path style="fill:none;stroke-width:1;stroke-linecap:round;stroke-linejoin:round;stroke:rgb(0%,0%,0%);stroke-opacity:1;stroke-miterlimit:10;" d="M 140 420 C 156.800781 420 173.601562 420 190.398438 420 C 190.398438 406 190.398438 392 190.398438 378 C 173.601562 378 156.800781 378 140 378 C 140 392 140 406 140 420 "/>
<path style=" stroke:none;fill-rule:nonzero;fill:rgb(0%,0%,0%);fill-opacity:1;" d="M 140 420 C 156.800781 420 173.601562 420 190.398438 420 C 190.398438 406 190.398438 392 190.398438 378 C 173.601562 378 156.800781 378 140 378 C 140 392 140 406 140 420 Z M 140 420 "/>
<path style="fill:none;stroke-width:1;stroke-linecap:round;stroke-linejoin:round;stroke:rgb(100%,100%,100%);stroke-opacity:1;stroke-miterlimit:10;" d="M 196 420 C 212.800781 420 229.601562 420 246.398438 420 C 246.398438 406 246.398438 392 246.398438 378 C 229.601562 378 212.800781 378 196 378 C 196 392 196 406 196 420 "/>
<path style=" stroke:none;fill-rule:nonzero;fill:rgb(100%,100%,100%);fill-opacity:1;" d="M 196 420 C 212.800781 420 229.601562 420 246.398438 420 C 246.398438 406 246.398438 392 246.398438 378 C 229.601562 378 212.800781 378 196 378 C 196 392 196 406 196 420 Z M 196 420 "/>
<path style="fill:none;stroke-width:1;stroke-linecap:round;stroke-linejoin:round;stroke:rgb(0%,0%,0%);stroke-opacity:1;stroke-miterlimit:10;" d="M 252 420 C 268.800781 420 285.601562 420 302.398438 420 C 302.398438 406 302.398438 392 302.398438 378 C 285.601562 378 268.800781 378 252 378 C 252 392 252 406 252 420 "/>
<path style=" stroke:none;fill-rule:nonzero;fill:rgb(0%,0%,0%);fill-opacity:1;" d="M 252 420 C 268.800781 420 285.601562 420 302.398438 420 C 302.398438 406 302.398438 392 302.398438 378 C 285.601562 378 268.800781 378 252 378 C 252 392 252 406 252 420 Z M 252 420 "/>
<path style="fill:none;stroke-width:1;stroke-linecap:round;stroke-linejoin:round;stroke:rgb(100%,100%,100%);stroke-opacity:1;stroke-miterlimit:10;" d="M 308 420 C 324.800781 420 341.601562 420 358.398438 420 C 358.398438 406 358.398438 392 358.398438 378 C 341.601562 378 324.800781 378 308 378 C 308 392 308 406 308 420 "/>
<path style=" stroke:none;fill-rule:nonzero;fill:rgb(100%,100%,100%);fill-opacity:1;" d="M 308 420 C 324.800781 420 341.601562 420 358.398438 420 C 358.398438 406 358.398438 392 358.398438 378 C 341.601562 378 324.800781 378 308 378 C 308 392 308 406 308 420 Z M 308 420 "/>
<path style="fill:none;stroke-width:1;stroke-linecap:round;stroke-linejoin:round;stroke:rgb(0%,0%,0%);stroke-opacity:1;stroke-miterlimit:10;" d="M 364 420 C 380.800781 420 397.601562 420 414.398438 420 C 414.398438 406 414.398438 392 414.398438 378 C 397.601562 378 380.800781 378 364 378 C 364 392 364 406 364 420 "/>
<path style=" stroke:none;fill-rule:nonzero;fill:rgb(0%,0%,0%);fill-opacity:1;" d="M 364 420 C 380.800781 420 397.601562 420 414.398438 420 C 414.398438 406 414.398438 392 414.398438 378 C 397.601562 378 380.800781 378 364 378 C 364 392 364 406 364 420 Z M 364 420 "/>
<path style="fill:none;stroke-width:1;stroke-linecap:round;stroke-linejoin:round;stroke:rgb(100%,100%,100%);stroke-opacity:1;stroke-miterlimit:10;" d="M 420 420 C 436.800781 420 453.601562 420 470.398438 420 C 470.398438 406 470.398438 392 470.398438 378 C 453.601562 378 436.800781 378 420 378 C 420 392 420 406 420 420 "/>
<path style=" stroke:none;fill-rule:nonzero;fill:rgb(100%,100%,100%);fill-opacity:1;" d="M 420 420 C 436.800781 420 453.601562 420 470.398438 420 C 470.398438 406 470.398438 392 470.398438 378 C 453.601562 378 436.800781 378 420 378 C 420 392 420 406 420 420 Z M 420 420 "/>
<path style="fill:none;stroke-width:1;stroke-linecap:round;stroke-linejoin:round;stroke:rgb(0%,0%,0%);stroke-opacity:1;stroke-miterlimit:10;" d="M 476 420 C 492.800781 420 509.601562 420 526.398438 420 C 526.398438 406 526.398438 392 526.398438 378 C 509.601562 378 492.800781 378 476 378 C 476 392 476 406 476 420 "/>
<path style=" stroke:none;fill-rule:nonzero;fill:rgb(0%,0%,0%);fill-opacity:1;" d="M 476 420 C 492.800781 420 509.601562 420 526.398438 420 C 526.398438 406 526.398438 392 526.398438 378 C 509.601562 378 492.800781 378 476 378 C 476 392 476 406 476 420 Z M 476 420 "/>
<path style="fill:none;stroke-width:1;stroke-linecap:round;stroke-linejoin:round;stroke:rgb(100%,100%,100%);stroke-opacity:1;stroke-miterlimit:10;" d="M 532 420 C 548.800781 420 565.601562 420 582.398438 420 C 582.398438 406 582.398438 392 582.398438 378 C 565.601562 378 548.800781 378 532 378 C 532 392 532 406 532 420 "/>
<path style=" stroke:none;fill-rule:nonzero;fill:rgb(100%,100%,100%);fill-opacity:1;" d="M 532 420 C 548.800781 420 565.601562 420 582.398438 420 C 582.398438 406 582.398438 392 582.398438 378 C 565.601562 378 548.800781 378 532 378 C 532 392 532 406 532 420 Z M 532 420 "/>
<path style="fill:none;stroke-width:1;stroke-linecap:round;stroke-linejoin:round;stroke:rgb(100%,100%,100%);stroke-opacity:1;stroke-miterlimit:10;" d="M -14 373.332031 C 2.800781 373.332031 19.601562 373.332031 36.398438 373.332031 C 36.398438 359.332031 36.398438 345.332031 36.398438 331.332031 C 19.601562 331.332031 2.800781 331.332031 -14 331.332031 C -14 345.332031 -14 359.332031 -14 373.332031 "/>
<path style=" stroke:none;fill-rule:nonzero;fill:rgb(100%,100%,100%);fill-opacity:1;" d="M -14 373.332031 C 2.800781 373.332031 19.601562 373.332031 36.398438 373.332031 C 36.398438 359.332031 36.398438 345.332031 36.398438 331.332031 C 19.601562 331.332031 2.800781 331.332031 -14 331.332031 C -14 345.332031 -14 359.332031 -14 373.332031 Z M -14 373.332031 "/>
<path style="fill:none;stroke-width:1;stroke-linecap:round;stroke-linejoin:round;stroke:rgb(0%,0%,0%);stroke-opacity:1;stroke-miterlimit:10;" d="M 42 373.332031 C 58.800781 373.332031 75.601562 373.332031 92.398438 373.332031 C 92.398438 359.332031 92.398438 345.332031 92.398438 331.332031 C 75.601562 331.332031 58.800781 331.332031 42 331.332031 C 42 345.332031 42 359.332031 42 373.332031 "/>
<path style=" stroke:none;fill-rule:nonzero;fill:rgb(0%,0%,0%);fill-opacity:1;" d="M 42 373.332031 C 58.800781 373.332031 75.601562 373.332031 92.398438 373.332031 C 92.398438 359.332031 92.398438 345.332031 92.398438 331.332031 C 75.601562 331.332031 58.800781 331.332031 42 331.332031 C 42 345.332031 42 359.332031 42 373.332031 Z M 42 373.332031 "/>
<path style="fill:none;stroke-width:1;stroke-linecap:round;stroke-linejoin:round;stroke:rgb(100%,100%,100%);stroke-opacity:1;stroke-miterlimit:10;" d="M 98 373.332031 C 114.800781 373.332031 131.601562 373.332031 148.398438 373.332031 C 148.398438 359.332031 148.398438 345.332031 148.398438 331.332031 C 131.601562 331.332031 114.800781 331.332031 98 331.332031 C 98 345.332031 98 359.332031 98 373.332031 "/>
<path style=" stroke:none;fill-rule:nonzero;fill:rgb(100%,100%,100%);fill-opacity:1;" d="M 98 373.332031 C 114.800781 373.332031 131.601562 373.332031 148.398438 373.332031 C 148.398438 359.332031 148.398438 345.332031 148.398438 331.332031 C 131.601562 331.332031 114.800781 331.332031 98 331.332031 C 98 345.332031 98 359.332031 98 373.332031 Z M 98 373.332031 "/>
<path style="fill:none;stroke-width:1;stroke-linecap:round;stroke-linejoin:round;stroke:rgb(0%,0%,0%);stroke-opacity:1;stroke-miterlimit:10;" d="M 154 373.332031 C 170.800781 373.332031 187.601562 373.332031 204.398438 373.332031 C 204.398438 359.332031 204.398438 345.332031 204.398438 331.332031 C 187.601562 331.332031 170.800781 331.332031 154 331.332031 C 154 345.332031 154 359.332031 154 373.332031 "/>
<path style=" stroke:none;fill-rule:nonzero;fill:rgb(0%,0%,0%);fill-opacity:1;" d="M 154 373.332031 C 170.800781 373.332031 187.601562 373.332031 204.398438 373.332031 C 204.398438 359.332031 204.398438 345.332031 204.398438 331.332031 C 187.601562 331.332031 170.800781 331.332031 154 331.332031 C 154 345.332031 154 359.332031 154 373.332031 Z M 154 373.332031 "/>
<path style="fill:none;stroke-width:1;stroke-linecap:round;stroke-linejoin:round;stroke:rgb(100%,100%,100%);stroke-opacity:1;stroke-miterlimit:10;" d="M 210 373.332031 C 226.800781 373.332031 243.601562 373.332031 260.398438 373.332031 C 260.398438 359.332031 260.398438 345.332031 260.398438 331.332031 C 243.601562 331.332031 226.800781 331.332031 210 331.332031 C 210 345.332031 210 359.332031 210 373.332031 "/>
<path style=" stroke:none;fill-rule:nonzero;fill:rgb(100%,100%,100%);fill-opacity:1;" d="M 210 373.332031 C 226.800781 373.332031 243.601562 373.332031 260.398438 373.332031 C 260.398438 359.332031 260.398438 345.332031 260.398438 331.332031 C 243.601562 331.332031 226.800781 331.332031 210 331.332031 C 210 345.332031 210 359.332031 210 373.332031 Z M 210 373.332031 "/>
<path style="fill:none;stroke-width:1;stroke-linecap:round;stroke-linejoin:round;stroke:rgb(0%,0%,0%);stroke-opacity:1;stroke-miterlimit:10;" d="M 266 373.332031 C 282.800781 373.332031 299.601562 373.332031 316.398438 373.332031 C 316.398438 359.332031 316.398438 345.332031 316.398438 331.332031 C 299.601562 331.332031 282.800781 331.332031 266 331.332031 C 266 345.332031 266 359.332031 266 373.332031 "/>
<path style=" stroke:none;fill-rule:nonzero;fill:rgb(0%,0%,0%);fill-opacity:1;" d="M 266 373.332031 C 282.800781 373.332031 299.601562 373.332031 316.398438 373.332031 C 316.398438 359.332031 316.398438 345.332031 316.398438 331.332031 C 299.601562 331.332031 282.800781 331.332031 266 331.332031 C 266 345.332031 266 359.332031 266 373.332031 Z M 266 373.332031 "/>
<path style="fill:none;stroke-width:1;stroke-linecap:round;stroke-linejoin:round;stroke:rgb(100%,100%,100%);stroke-opacity:1;stroke-miterlimit:10;" d="M 322 373.332031 C 338.800781 373.332031 355.601562 373.332031 372.398438 373.332031 C 372.398438 359.332031 372.398438 345.332031 372.398438 331.332031 C 355.601562 331.332031 338.800781 331.332031 322 331.332031 C 322 345.332031 322 359.332031 322 373.332031 "/>
<path style=" stroke:none;fill-rule:nonzero;fill:rgb(100%,100%,100%);fill-opacity:1;" d="M 322 373.332031 C 338.800781 373.332031 355.601562 373.332031 372.398438 373.332031 C 372.398438 359.332031 372.398438 345.332031 372.398438 331.332031 C 355.601562 331.332031 338.800781 331.332031 322 331.332031 C 322 345.332031 322 359.332031 322 373.332031 Z M 322 373.332031 "/>
<path style="fill:none;stroke-width:1;stroke-linecap:round;stroke-linejoin:round;stroke:rgb(0%,0%,0%);stroke-opacity:1;stroke-miterlimit:10;" d="M 378 373.332031 C 394.800781 373.332031 411.601562 373.332031 428.398438 373.332031 C 428.398438 359.332031 428.398438 345.332031 428.398438 331.332031 C 411.601562 331.332031 394.800781 331.332031 378 331.332031 C 378 345.332031 378 359.332031 378 373.332031 "/>
<path style=" stroke:none;fill-rule:nonzero;fill:rgb(0%,0%,0%);fill-opacity:1;" d="M 378 373.332031 C 394.800781 373.332031 411.601562 373.332031 428.398438 373.332031 C 428.398438 359.332031 428.398438 345.332031 428.398438 331.332031 C 411.601562 331.332031 394.800781 331.332031 378 331.332031 C 378 345.332031 378 359.332031 378 373.332031 Z M 378 373.332031 "/>
<path style="fill:none;stroke-width:1;stroke-linecap:round;stroke-linejoin:round;stroke:rgb(100%,100%,100%);stroke-opacity:1;stroke-miterlimit:10;" d="M 434 373.332031 C 450.800781 373.332031 467.601562 373.332031 484.398438 373.332031 C 484.398438 359.332031 484.398438 345.332031 484.398438 331.332031 C 467.601562 331.332031 450.800781 331.332031 434 331.332031 C 434 345.332031 434 359.332031 434 373.332031 "/>
<path style=" stroke:none;fill-rule:nonzero;fill:rgb(100%,100%,100%);fill-opacity:1;" d="M 434 373.332031 C 450.800781 373.332031 467.601562 373.332031 484.398438 373.332031 C 484.398438 359.332031 484.398438 345.332031 484.398438 331.332031 C 467.601562 331.332031 450.800781 331.332031 434 331.332031 C 434 345.332031 434 359.332031 434 373.332031 Z M 434 373.332031 "/>
<path style="fill:none;stroke-width:1;stroke-linecap:round;stroke-linejoin:round;stroke:rgb(0%,0%,0%);stroke-opacity:1;stroke-miterlimit:10;" d="M 490 373.332031 C 506.800781 373.332031 523.601562 373.332031 540.398438 373.332031 C 540.398438 359.332031 540.398438 345.332031 540.398438 331.332031 C 523.601562 331.332031 506.800781 331.332031 490 331.332031 C 490 345.332031 490 359.332031 490 373.332031 "/>
<path style=" stroke:none;fill-rule:nonzero;fill:rgb(0%,0%,0%);fill-opacity:1;" d="M 490 373.332031 C 506.800781 373.332031 523.601562 373.332031 540.398438 373.332031 C 540.398438 359.332031 540.398438 345.332031 540.398438 331.332031 C 523.601562 331.332031 506.800781 331.332031 490 331.332031 C 490 345.332031 490 359.332031 490 373.332031 Z M 490 373.332031 "/>
<path style="fill:none;stroke-width:1;stroke-linecap:round;stroke-linejoin:round;stroke:rgb(100%,100%,100%);stroke-opacity:1;stroke-miterlimit:10;" d="M 546 373.332031 C 562.800781 373.332031 579.601562 373.332031 596.398438 373.332031 C 596.398438 359.332031 596.398438 345.332031 596.398438 331.332031 C 579.601562 331.332031 562.800781 331.332031 546 331.332031 C 546 345.332031 546 359.332031 546 373.332031 "/>
<path style=" stroke:none;fill-rule:nonzero;fill:rgb(100%,100%,100%);fill-opacity:1;" d="M 546 373.332031 C 562.800781 373.332031 579.601562 373.332031 596.398438 373.332031 C 596.398438 359.332031 596.398438 345.332031 596.398438 331.332031 C 579.601562 331.332031 562.800781 331.332031 546 331.332031 C 546 345.332031 546 359.332031 546 373.332031 Z M 546 373.332031 "/>
<path style="fill:none;stroke-width:1;stroke-linecap:round;stroke-linejoin:round;stroke:rgb(100%,100%,100%);stroke-opacity:1;stroke-miterlimit:10;" d="M 0 326.667969 C 16.800781 326.667969 33.601562 326.667969 50.398438 326.667969 C 50.398438 312.667969 50.398438 298.667969 50.398438 284.667969 C 33.601562 284.667969 16.800781 284.667969 0 284.667969 C 0 298.667969 0 312.667969 0 326.667969 "/>
<path style=" stroke:none;fill-rule:nonzero;fill:rgb(100%,100%,100%);fill-opacity:1;" d="M 0 326.667969 C 16.800781 326.667969 33.601562 326.667969 50.398438 326.667969 C 50.398438 312.667969 50.398438 298.667969 50.398438 284.667969 C 33.601562 284.667969 16.800781 284.667969 0 284.667969 C 0 298.667969 0 312.667969 0 326.667969 Z M 0 326.667969 "/>
<path style="fill:none;stroke-width:1;stroke-linecap:round;stroke-linejoin:round;stroke:rgb(0%,0%,0%);stroke-opacity:1;stroke-miterlimit:10;" d="M 56 326.667969 C 72.800781 326.667969 89.601562 326.667969 106.398438 326.667969 C 106.398438 312.667969 106.398438 298.667969 106.398438 284.667969 C 89.601562 284.667969 72.800781 284.667969 56 284.667969 C 56 298.667969 56 312.667969 56 326.667969 "/>
<path style=" stroke:none;fill-rule:nonzero;fill:rgb(0%,0%,0%);fill-opacity:1;" d="M 56 326.667969 C 72.800781 326.667969 89.601562 326.667969 106.398438 326.667969 C 106.398438 312.667969 106.398438 298.667969 106.398438 284.667969 C 89.601562 284.667969 72.800781 284.667969 56 284.667969 C 56 298.667969 56 312.667969 56 326.667969 Z M 56 326.667969 "/>
<path style="fill:none;stroke-width:1;stroke-linecap:round;stroke-linejoin:round;stroke:rgb(100%,100%,100%);stroke-opacity:1;stroke-miterlimit:10;" d="M 112 326.667969 C 128.800781 326.667969 145.601562 326.667969 162.398438 326.667969 C 162.398438 312.667969 162.398438 298.667969 162.398438 284.667969 C 145.601562 284.667969 128.800781 284.667969 112 284.667969 C 112 298.667969 112 312.667969 112 326.667969 "/>
<path style=" stroke:none;fill-rule:nonzero;fill:rgb(100%,100%,100%);fill-opacity:1;" d="M 112 326.667969 C 128.800781 326.667969 145.601562 326.667969 162.398438 326.667969 C 162.398438 312.667969 162.398438 298.667969 162.398438 284.667969 C 145.601562 284.667969 128.800781 284.667969 112 284.667969 C 112 298.667969 112 312.667969 112 326.667969 Z M 112 326.667969 "/>
<path style="fill:none;stroke-width:1;stroke-linecap:round;stroke-linejoin:round;stroke:rgb(0%,0%,0%);stroke-opacity:1;stroke-miterlimit:10;" d="M 168 326.667969 C 184.800781 326.667969 201.601562 326.667969 218.398438 326.667969 C 218.398438 312.667969 218.398438 298.667969 218.398438 284.667969 C 201.601562 284.667969 184.800781 284.667969 168 284.667969 C 168 298.667969 168 312.667969 168 326.667969 "/>
<path style=" stroke:none;fill-rule:nonzero;fill:rgb(0%,0%,0%);fill-opacity:1;" d="M 168 326.667969 C 184.800781 326.667969 201.601562 326.667969 218.398438 326.667969 C 218.398438 312.667969 218.398438 298.667969 218.398438 284.667969 C 201.601562 284.667969 184.800781 284.667969 168 284.667969 C 168 298.667969 168 312.667969 168 326.667969 Z M 168 326.667969 "/>
<path style="fill:none;stroke-width:1;stroke-linecap:round;stroke-linejoin:round;stroke:rgb(100%,100%,100%);stroke-opacity:1;stroke-miterlimit:10;" d="M 224 326.667969 C 240.800781 326.667969 257.601562 326.667969 274.398438 326.667969 C 274.398438 312.667969 274.398438 298.667969 274.398438 284.667969 C 257.601562 284.667969 240.800781 284.667969 224 284.667969 C 224 298.667969 224 312.667969 224 326.667969 "/>
<path style=" stroke:none;fill-rule:nonzero;fill:rgb(100%,100%,100%);fill-opacity:1;" d="M 224 326.667969 C 240.800781 326.667969 257.601562 326.667969 274.398438 326.667969 C 274.398438 312.667969 274.398438 298.667969 274.398438 284.667969 C 257.601562 284.667969 240.800781 284.667969 224 284.667969 C 224 298.667969 224 312.667969 224 326.667969 Z M 224 326.667969 "/>
<path style="fill:none;stroke-width:1;stroke-linecap:round;stroke-linejoin:round;stroke:rgb(0%,0%,0%);stroke-opacity:1;stroke-miterlimit:10;" d="M 280 326.667969 C 296.800781 326.667969 313.601562 326.667969 330.398438 326.667969 C 330.398438 312.667969 330.398438 298.667969 330.398438 284.667969 C 313.601562 284.667969 296.800781 284.667969 280 284.667969 C 280 298.667969 280 312.667969 280 326.667969 "/>
<path style=" stroke:none;fill-rule:nonzero;fill:rgb(0%,0%,0%);fill-opacity:1;" d="M 280 326.667969 C 296.800781 326.667969 313.601562 326.667969 330.398438 326.667969 C 330.398438 312.667969 330.398438 298.667969 330.398438 284.667969 C 313.601562 284.667969 296.800781 284.667969 280 284.667969 C 280 298.667969 280 312.667969 280 326.667969 Z M 280 326.667969 "/>
<path style="fill:none;stroke-width:1;stroke-linecap:round;stroke-linejoin:round;stroke:rgb(100%,100%,100%);stroke-opacity:1;stroke-miterlimit:10;" d="M 336 326.667969 C 352.800781 326.667969 369.601562 326.667969 386.398438 326.667969 C 386.398438 312.667969 386.398438 298.667969 386.398438 284.667969 C 369.601562 284.667969 352.800781 284.667969 336 284.667969 C 336 298.667969 336 312.667969 336 326.667969 "/>
<path style=" stroke:none;fill-rule:nonzero;fill:rgb(100%,100%,100%);fill-opacity:1;" d="M 336 326.667969 C 352.800781 326.667969 369.601562 326.667969 386.398438 326.667969 C 386.398438 312.667969 386.398438 298.667969 386.398438 284.667969 C 369.601562 284.667969 352.800781 284.667969 336 284.667969 C 336 298.667969 336 312.667969 336 326.667969 Z M 336 326.667969 "/>
<path style="fill:none;stroke-width:1;stroke-linecap:round;stroke-linejoin:round;stroke:rgb(0%,0%,0%);stroke-opacity:1;stroke-miterlimit:10;" d="M 392 326.667969 C 408.800781 326.667969 425.601562 326.667969 442.398438 326.667969 C 442.398438 312.667969 442.398438 298.667969 442.398438 284.667969 C 425.601562 284.667969 408.800781 284.667969 392 284.667969 C 392 298.667969 392 312.667969 392 326.667969 "/>
<path style=" stroke:none;fill-rule:nonzero;fill:rgb(0%,0%,0%);fill-opacity:1;" d="M 392 326.667969 C 408.800781 326.667969 425.601562 326.667969 442.398438 326.667969 C 442.398438 312.667969 442.398438 298.667969 442.398438 284.667969 C 425.601562 284.667969 408.800781 284.667969 392 284.667969 C 392 298.667969 392 312.667969 392 326.667969 Z M 392 326.667969 "/>
<path style="fill:none;stroke-width:1;stroke-linecap:round;stroke-linejoin:round;stroke:rgb(100%,100%,100%);stroke-opacity:1;stroke-miterlimit:10;" d="M 448 326.667969 C 464.800781 326.667969 481.601562 326.667969 498.398438 326.667969 C 498.398438 312.667969 498.398438 298.667969 498.398438 284.667969 C 481.601562 284.667969 464.800781 284.667969 448 284.667969 C 448 298.667969 448 312.667969 448 326.667969 "/>
<path style=" stroke:none;fill-rule:nonzero;fill:rgb(100%,100%,100%);fill-opacity:1;" d="M 448 326.667969 C 464.800781 326.667969 481.601562 326.667969 498.398438 326.667969 C 498.398438 312.667969 498.398438 298.667969 498.398438 284.667969 C 481.601562 284.667969 464.800781 284.667969 448 284.667969 C 448 298.667969 448 312.667969 448 326.667969 Z M 448 326.667969 "/>
<path style="fill:none;stroke-width:1;stroke-linecap:round;stroke-linejoin:round;stroke:rgb(0%,0%,0%);stroke-opacity:1;stroke-miterlimit:10;" d="M 504 326.667969 C 520.800781 326.667969 537.601562 326.667969 554.398438 326.667969 C 554.398438 312.667969 554.398438 298.667969 554.398438 284.667969 C 537.601562 284.667969 520.800781 284.667969 504 284.667969 C 504 298.667969 504 312.667969 504 326.667969 "/>
<path style=" stroke:none;fill-rule:nonzero;fill:rgb(0%,0%,0%);fill-opacity:1;" d="M 504 326.667969 C 520.800781 326.667969 537.601562 326.667969 554.398438 326.667969 C 554.398438 312.667969 554.398438 298.667969 554.398438 284.667969 C 537.601562 284.667969 520.800781 284.667969 504 284.667969 C 504 298.667969 504 312.667969 504 326.667969 Z M 504 326.667969 "/>
<path style="fill:none;stroke-width:1;stroke-linecap:round;stroke-linejoin:round;stroke:rgb(100%,100%,100%);stroke-opacity:1;stroke-miterlimit:10;" d="M 560 326.667969 C 576.800781 326.667969 593.601562 326.667969 610.398438 326.667969 C 610.398438 312.667969 610.398438 298.667969 610.398438 284.667969 C 593.601562 284.667969 576.800781 284.667969 560 284.667969 C 560 298.667969 560 312.667969 560 326.667969 "/>
<path style="fill:none;stroke-width:1;stroke-linecap:round;stroke-linejoin:round;stroke:rgb(100%,100%,100%);stroke-opacity:1;stroke-miterlimit:10;" d="M -14 280 C 2.800781 280 19.601562 280 36.398438 280 C 36.398438 266 36.398438 252 36.398438 238 C 19.601562 238 2.800781 238 -14 238 C -14 252 -14 266 -14 280 "/>
<path style=" stroke:none;fill-rule:nonzero;fill:rgb(100%,100%,100%);fill-opacity:1;" d="M -14 280 C 2.800781 280 19.601562 280 36.398438 280 C 36.398438 266 36.398438 252 36.398438 238 C 19.601562 238 2.800781 238 -14 238 C -14 252 -14 266 -14 280 Z M -14 280 "/>
<path style="fill:none;stroke-width:1;stroke-linecap:round;stroke-linejoin:round;stroke:rgb(0%,0%,0%);stroke-opacity:1;stroke-miterlimit:10;" d="M 42 280 C 58.800781 280 75.601562 280 92.398438 280 C 92.398438 266 92.398438 252 92.398438 238 C 75.601562 238 58.800781 238 42 238 C 42 252 42 266 42 280 "/>
<path style=" stroke:none;fill-rule:nonzero;fill:rgb(0%,0%,0%);fill-opacity:1;" d="M 42 280 C 58.800781 280 75.601562 280 92.398438 280 C 92.398438 266 92.398438 252 92.398438 238 C 75.601562 238 58.800781 238 42 238 C 42 252 42 266 42 280 Z M 42 280 "/>
<path style="fill:none;stroke-width:1;stroke-linecap:round;stroke-linejoin:round;stroke:rgb(100%,100%,100%);stroke-opacity:1;stroke-miterlimit:10;" d="M 98 280 C 114.800781 280 131.601562 280 148.398438 280 C 148.398438 266 148.398438 252 148.398438 238 C 131.601562 238 114.800781 238 98 238 C 98 252 98 266 98 280 "/>
<path style=" stroke:none;fill-rule:nonzero;fill:rgb(100%,100%,100%);fill-opacity:1;" d="M 98 280 C 114.800781 280 131.601562 280 148.398438 280 C 148.398438 266 148.398438 252 148.398438 238 C 131.601562 238 114.800781 238 98 238 C 98 252 98 266 98 280 Z M 98 280 "/>
<path style="fill:none;stroke-width:1;stroke-linecap:round;stroke-linejoin:round;stroke:rgb(0%,0%,0%);stroke-opacity:1;stroke-miterlimit:10;" d="M 154 280 C 170.800781 280 187.601562 280 204.398438 280 C 204.398438 266 204.398438 252 204.398438 238 C 187.601562 238 170.800781 238 154 238 C 154 252 154 266 154 280 "/>
<path style=" stroke:none;fill-rule:nonzero;fill:rgb(0%,0%,0%);fill-opacity:1;" d="M 154 280 C 170.800781 280 187.601562 280 204.398438 280 C 204.398438 266 204.398438 252 204.398438 238 C 187.601562 238 170.800781 238 154 238 C 154 252 154 266 154 280 Z M 154 280 "/>
<path style="fill:none;stroke-width:1;stroke-linecap:round;stroke-linejoin:round;stroke:rgb(100%,100%,100%);stroke-opacity:1;stroke-miterlimit:10;" d="M 210 280 C 226.800781 280 243.601562 280 260.398438 280 C 260.398438 266 260.398438 252 260.398438 238 C 243.601562 238 226.800781 238 210 238 C 210 252 210 266 210 280 "/>
<path style=" stroke:none;fill-rule:nonzero;fill:rgb(100%,100%,100%);fill-opacity:1;" d="M 210 280 C 226.800781 280 243.601562 280 260.398438 280 C 260.398438 266 260.398438 252 260.398438 238 C 243.601562 238 226.800781 238 210 238 C 210 252 210 266 210 280 Z M 210 280 "/>
<path style="fill:none;stroke-width:1;stroke-linecap:round;stroke-linejoin:round;stroke:rgb(0%,0%,0%);stroke-opacity:1;stroke-miterlimit:10;" d="M 266 280 C 282.800781 280 299.601562 280 316.398438 280 C 316.398438 266 316.398438 252 316.398438 238 C 299.601562 238 282.800781 238 266 238 C 266 252 266 266 266 280 "/>
<path style=" stroke:none;fill-rule:nonzero;fill:rgb(0%,0%,0%);fill-opacity:1;" d="M 266 280 C 282.800781 280 299.601562 280 316.398438 280 C 316.398438 266 316.398438 252 316.398438 238 C 299.601562 238 282.800781 238 266 238 C 266 252 266 266 266 280 Z M 266 280 "/>
<path style="fill:none;stroke-width:1;stroke-linecap:round;stroke-linejoin:round;stroke:rgb(100%,100%,100%);stroke-opacity:1;stroke-miterlimit:10;" d="M 322 280 C 338.800781 280 355.601562 280 372.398438 280 C 372.398438 266 372.398438 252 372.398438 238 C 355.601562 238 338.800781 238 322 238 C 322 252 322 266 322 280 "/>
<path style=" stroke:none;fill-rule:nonzero;fill:rgb(100%,100%,100%);fill-opacity:1;" d="M 322 280 C 338.800781 280 355.601562 280 372.398438 280 C 372.398438 266 372.398438 252 372.398438 238 C 355.601562 238 338.800781 238 322 238 C 322 252 322 266 322 280 Z M 322 280 "/>
<path style="fill:none;stroke-width:1;stroke-linecap:round;stroke-linejoin:round;stroke:rgb(0%,0%,0%);stroke-opacity:1;stroke-miterlimit:10;" d="M 378 280 C 394.800781 280 411.601562 280 428.398438 280 C 428.398438 266 428.398438 252 428.398438 238 C 411.601562 238 394.800781 238 378 238 C 378 252 378 266 378 280 "/>
<path style=" stroke:none;fill-rule:nonzero;fill:rgb(0%,0%,0%);fill-opacity:1;" d="M 378 280 C 394.800781 280 411.601562 280 428.398438 280 C 428.398438 266 428.398438 252 428.398438 238 C 411.601562 238 394.800781 238 378 238 C 378 252 378 266 378 280 Z M 378 280 "/>
<path style="fill:none;stroke-width:1;stroke-linecap:round;stroke-linejoin:round;stroke:rgb(100%,100%,100%);stroke-opacity:1;stroke-miterlimit:10;" d="M 434 280 C 450.800781 280 467.601562 280 484.398438 280 C 484.398438 266 484.398438 252 484.398438 238 C 467.601562 238 450.800781 238 434 238 C 434 252 434 266 434 280 "/>
<path style=" stroke:none;fill-rule:nonzero;fill:rgb(100%,100%,100%);fill-opacity:1;" d="M 434 280 C 450.800781 280 467.601562 280 484.398438 280 C 484.398438 266 484.398438 252 484.398438 238 C 467.601562 238 450.800781 238 434 238 C 434 252 434 266 434 280 Z M 434 280 "/>
<path style="fill:none;stroke-width:1;stroke-linecap:round;stroke-linejoin:round;stroke:rgb(0%,0%,0%);stroke-opacity:1;stroke-miterlimit:10;" d="M 490 280 C 506.800781 280 523.601562 280 540.398438 280 C 540.398438 266 540.398438 252 540.398438 238 C 523.601562 238 506.800781 238 490 238 C 490 252 490 266 490 280 "/>
<path style=" stroke:none;fill-rule:nonzero;fill:rgb(0%,0%,0%);fill-opacity:1;" d="M 490 280 C 506.800781 280 523.601562 280 540.398438 280 C 540.398438 266 540.398438 252 540.398438 238 C 523.601562 238 506.800781 238 490 238 C 490 252 490 266 490 280 Z M 490 280 "/>
<path style="fill:none;stroke-width:1;stroke-linecap:round;stroke-linejoin:round;stroke:rgb(100%,100%,100%);stroke-opacity:1;stroke-miterlimit:10;" d="M 546 280 C 562.800781 280 579.601562 280 596.398438 280 C 596.398438 266 596.398438 252 596.398438 238 C 579.601562 238 562.800781 238 546 238 C 546 252 546 266 546 280 "/>
<path style=" stroke:none;fill-rule:nonzero;fill:rgb(100%,100%,100%);fill-opacity:1;" d="M 546 280 C 562.800781 280 579.601562 280 596.398438 280 C 596.398438 266 596.398438 252 596.398438 238 C 579.601562 238 562.800781 238 546 238 C 546 252 546 266 546 280 Z M 546 280 "/>
<path style="fill:none;stroke-width:1;stroke-linecap:round;stroke-linejoin:round;stroke:rgb(100%,100%,100%);stroke-opacity:1;stroke-miterlimit:10;" d="M -28 233.332031 C -11.199219 233.332031 5.601562 233.332031 22.398438 233.332031 C 22.398438 219.332031 22.398438 205.332031 22.398438 191.332031 C 5.601562 191.332031 -11.199219 191.332031 -28 191.332031 C -28 205.332031 -28 219.332031 -28 233.332031 "/>
<path style=" stroke:none;fill-rule:nonzero;fill:rgb(100%,100%,100%);fill-opacity:1;" d="M -28 233.332031 C -11.199219 233.332031 5.601562 233.332031 22.398438 233.332031 C 22.398438 219.332031 22.398438 205.332031 22.398438 191.332031 C 5.601562 191.332031 -11.199219 191.332031 -28 191.332031 C -28 205.332031 -28 219.332031 -28 233.332031 Z M -28 233.332031 "/>
<path style="fill:none;stroke-width:1;stroke-linecap:round;stroke-linejoin:round;stroke:rgb(0%,0%,0%);stroke-opacity:1;stroke-miterlimit:10;" d="M 28 233.332031 C 44.800781 233.332031 61.601562 233.332031 78.398438 233.332031 C 78.398438 219.332031 78.398438 205.332031 78.398438 191.332031 C 61.601562 191.332031 44.800781 191.332031 28 191.332031 C 28 205.332031 28 219.332031 28 233.332031 "/>
<path style=" stroke:none;fill-rule:nonzero;fill:rgb(0%,0%,0%);fill-opacity:1;" d="M 28 233.332031 C 44.800781 233.332031 61.601562 233.332031 78.398438 233.332031 C 78.398438 219.332031 78.398438 205.332031 78.398438 191.332031 C 61.601562 191.332031 44.800781 191.332031 28 191.332031 C 28 205.332031 28 219.332031 28 233.332031 Z M 28 233.332031 "/>
<path style="fill:none;stroke-width:1;stroke-linecap:round;stroke-linejoin:round;stroke:rgb(100%,100%,100%);stroke-opacity:1;stroke-miterlimit:10;" d="M 84 233.332031 C 100.800781 233.332031 117.601562 233.332031 134.398438 233.332031 C 134.398438 219.332031 134.398438 205.332031 134.398438 191.332031 C 117.601562 191.332031 100.800781 191.332031 84 191.332031 C 84 205.332031 84 219.332031 84 233.332031 "/>
<path style=" stroke:none;fill-rule:nonzero;fill:rgb(100%,100%,100%);fill-opacity:1;" d="M 84 233.332031 C 100.800781 233.332031 117.601562 233.332031 134.398438 233.332031 C 134.398438 219.332031 134.398438 205.332031 134.398438 191.332031 C 117.601562 191.332031 100.800781 191.332031 84 191.332031 C 84 205.332031 84 219.332031 84 233.332031 Z M 84 233.332031 "/>
<path style="fill:none;stroke-width:1;stroke-linecap:round;stroke-linejoin:round;stroke:rgb(0%,0%,0%);stroke-opacity:1;stroke-miterlimit:10;" d="M 140 233.332031 C 156.800781 233.332031 173.601562 233.332031 190.398438 233.332031 C 190.398438 219.332031 190.398438 205.332031 190.398438 191.332031 C 173.601562 191.332031 156.800781 191.332031 140 191.332031 C 140 205.332031 140 219.332031 140 233.332031 "/>
<path style=" stroke:none;fill-rule:nonzero;fill:rgb(0%,0%,0%);fill-opacity:1;" d="M 140 233.332031 C 156.800781 233.332031 173.601562 233.332031 190.398438 233.332031 C 190.398438 219.332031 190.398438 205.332031 190.398438 191.332031 C 173.601562 191.332031 156.800781 191.332031 140 191.332031 C 140 205.332031 140 219.332031 140 233.332031 Z M 140 233.332031 "/>
<path style="fill:none;stroke-width:1;stroke-linecap:round;stroke-linejoin:round;stroke:rgb(100%,100%,100%);stroke-opacity:1;stroke-miterlimit:10;" d="M 196 233.332031 C 212.800781 233.332031 229.601562 233.332031 246.398438 233.332031 C 246.398438 219.332031 246.398438 205.332031 246.398438 191.332031 C 229.601562 191.332031 212.800781 191.332031 196 191.332031 C 196 205.332031 196 219.332031 196 233.332031 "/>
<path style=" stroke:none;fill-rule:nonzero;fill:rgb(100%,100%,100%);fill-opacity:1;" d="M 196 233.332031 C 212.800781 233.332031 229.601562 233.332031 246.398438 233.332031 C 246.398438 219.332031 246.398438 205.332031 246.398438 191.332031 C 229.601562 191.332031 212.800781 191.332031 196 191.332031 C 196 205.332031 196 219.332031 196 233.332031 Z M 196 233.332031 "/>
<path style="fill:none;stroke-width:1;stroke-linecap:round;stroke-linejoin:round;stroke:rgb(0%,0%,0%);stroke-opacity:1;stroke-miterlimit:10;" d="M 252 233.332031 C 268.800781 233.332031 285.601562 233.332031 302.398438 233.332031 C 302.398438 219.332031 302.398438 205.332031 302.398438 191.332031 C 285.601562 191.332031 268.800781 191.332031 252 191.332031 C 252 205.332031 252 219.332031 252 233.332031 "/>
<path style=" stroke:none;fill-rule:nonzero;fill:rgb(0%,0%,0%);fill-opacity:1;" d="M 252 233.332031 C 268.800781 233.332031 285.601562 233.332031 302.398438 233.332031 C 302.398438 219.332031 302.398438 205.332031 302.398438 191.332031 C 285.601562 191.332031 268.800781 191.332031 252 191.332031 C 252 205.332031 252 219.332031 252 233.332031 Z M 252 233.332031 "/>
<path style="fill:none;stroke-width:1;stroke-linecap:round;stroke-linejoin:round;stroke:rgb(100%,100%,100%);stroke-opacity:1;stroke-miterlimit:10;" d="M 308 233.332031 C 324.800781 233.332031 341.601562 233.332031 358.398438 233.332031 C 358.398438 219.332031 358.398438 205.332031 358.398438 191.332031 C 341.601562 191.332031 324.800781 191.332031 308 191.332031 C 308 205.332031 308 219.332031 308 233.332031 "/>
<path style=" stroke:none;fill-rule:nonzero;fill:rgb(100%,100%,100%);fill-opacity:1;" d="M 308 233.332031 C 324.800781 233.332031 341.601562 233.332031 358.398438 233.332031 C 358.398438 219.332031 358.398438 205.332031 358.398438 191.332031 C 341.601562 191.332031 324.800781 191.332031 308 191.332031 C 308 205.332031 308 219.332031 308 233.332031 Z M 308 233.332031 "/>
<path style="fill:none;stroke-width:1;stroke-linecap:round;stroke-linejoin:round;stroke:rgb(0%,0%,0%);stroke-opacity:1;stroke-miterlimit:10;" d="M 364 233.332031 C 380.800781 233.332031 397.601562 233.332031 414.398438 233.332031 C 414.398438 219.332031 414.398438 205.332031 414.398438 191.332031 C 397.601562 191.332031 380.800781 191.332031 364 191.332031 C 364 205.332031 364 219.332031 364 233.332031 "/>
<path style=" stroke:none;fill-rule:nonzero;fill:rgb(0%,0%,0%);fill-opacity:1;" d="M 364 233.332031 C 380.800781 233.332031 397.601562 233.332031 414.398438 233.332031 C 414.398438 219.332031 414.398438 205.332031 414.398438 191.332031 C 397.601562 191.332031 380.800781 191.332031 364 191.332031 C 364 205.332031 364 219.332031 364 233.332031 Z M 364 233.332031 "/>
<path style="fill:none;stroke-width:1;stroke-linecap:round;stroke-linejoin:round;stroke:rgb(100%,100%,100%);stroke-opacity:1;stroke-miterlimit:10;" d="M 420 233.332031 C 436.800781 233.332031 453.601562 233.332031 470.398438 233.332031 C 470.398438 219.332031 470.398438 205.332031 470.398438 191.332031 C 453.601562 191.332031 436.800781 191.332031 420 191.332031 C 420 205.332031 420 219.332031 420 233.332031 "/>
<path style=" stroke:none;fill-rule:nonzero;fill:rgb(100%,100%,100%);fill-opacity:1;" d="M 420 233.332031 C 436.800781 233.332031 453.601562 233.332031 470.398438 233.332031 C 470.398438 219.332031 470.398438 205.332031 470.398438 191.332031 C 453.601562 191.332031 436.800781 191.332031 420 191.332031 C 420 205.332031 420 219.332031 420 233.332031 Z M 420 233.332031 "/>
<path style="fill:none;stroke-width:1;stroke-linecap:round;stroke-linejoin:round;stroke:rgb(0%,0%,0%);stroke-opacity:1;stroke-miterlimit:10;" d="M 476 233.332031 C 492.800781 233.332031 509.601562 233.332031 526.398438 233.332031 C 526.398438 219.332031 526.398438 205.332031 526.398438 191.332031 C 509.601562 191.332031 492.800781 191.332031 476 191.332031 C 476 205.332031 476 219.332031 476 233.332031 "/>
<path style=" stroke:none;fill-rule:nonzero;fill:rgb(0%,0%,0%);fill-opacity:1;" d="M 476 233.332031 C 492.800781 233.332031 509.601562 233.332031 526.398438 233.332031 C 526.398438 219.332031 526.398438 205.332031 526.398438 191.332031 C 509.601562 191.332031 492.800781 191.332031 476 191.332031 C 476 205.332031 476 219.332031 476 233.332031 Z M 476 233.332031 "/>
<path style="fill:none;stroke-width:1;stroke-linecap:round;stroke-linejoin:round;stroke:rgb(100%,100%,100%);stroke-opacity:1;stroke-miterlimit:10;" d="M 532 233.332031 C 548.800781 233.332031 565.601562 233.332031 582.398438 233.332031 C 582.398438 219.332031 582.398438 205.332031 582.398438 191.332031 C 565.601562 191.332031 548.800781 191.332031 532 191.332031 C 532 205.332031 532 219.332031 532 233.332031 "/>
<path style=" stroke:none;fill-rule:nonzero;fill:rgb(100%,100%,100%);fill-opacity:1;" d="M 532 233.332031 C 548.800781 233.332031 565.601562 233.332031 582.398438 233.332031 C 582.398438 219.332031 582.398438 205.332031 582.398438 191.332031 C 565.601562 191.332031 548.800781 191.332031 532 191.332031 C 532 205.332031 532 219.332031 532 233.332031 Z M 532 233.332031 "/>
<path style="fill:none;stroke-width:1;stroke-linecap:round;stroke-linejoin:round;stroke:rgb(100%,100%,100%);stroke-opacity:1;stroke-miterlimit:10;" d="M -14 186.667969 C 2.800781 186.667969 19.601562 186.667969 36.398438 186.667969 C 36.398438 172.667969 36.398438 158.667969 36.398438 144.667969 C 19.601562 144.667969 2.800781 144.667969 -14 144.667969 C -14 158.667969 -14 172.667969 -14 186.667969 "/>
<path style=" stroke:none;fill-rule:nonzero;fill:rgb(100%,100%,100%);fill-opacity:1;" d="M -14 186.667969 C 2.800781 186.667969 19.601562 186.667969 36.398438 186.667969 C 36.398438 172.667969 36.398438 158.667969 36.398438 144.667969 C 19.601562 144.667969 2.800781 144.667969 -14 144.667969 C -14 158.667969 -14 172.667969 -14 186.667969 Z M -14 186.667969 "/>
<path style="fill:none;stroke-width:1;stroke-linecap:round;stroke-linejoin:round;stroke:rgb(0%,0%,0%);stroke-opacity:1;stroke-miterlimit:10;" d="M 42 186.667969 C 58.800781 186.667969 75.601562 186.667969 92.398438 186.667969 C 92.398438 172.667969 92.398438 158.667969 92.398438 144.667969 C 75.601562 144.667969 58.800781 144.667969 42 144.667969 C 42 158.667969 42 172.667969 42 186.667969 "/>
<path style=" stroke:none;fill-rule:nonzero;fill:rgb(0%,0%,0%);fill-opacity:1;" d="M 42 186.667969 C 58.800781 186.667969 75.601562 186.667969 92.398438 186.667969 C 92.398438 172.667969 92.398438 158.667969 92.398438 144.667969 C 75.601562 144.667969 58.800781 144.667969 42 144.667969 C 42 158.667969 42 172.667969 42 186.667969 Z M 42 186.667969 "/>
<path style="fill:none;stroke-width:1;stroke-linecap:round;stroke-linejoin:round;stroke:rgb(100%,100%,100%);stroke-opacity:1;stroke-miterlimit:10;" d="M 98 186.667969 C 114.800781 186.667969 131.601562 186.667969 148.398438 186.667969 C 148.398438 172.667969 148.398438 158.667969 148.398438 144.667969 C 131.601562 144.667969 114.800781 144.667969 98 144.667969 C 98 158.667969 98 172.667969 98 186.667969 "/>
<path style=" stroke:none;fill-rule:nonzero;fill:rgb(100%,100%,100%);fill-opacity:1;" d="M 98 186.667969 C 114.800781 186.667969 131.601562 186.667969 148.398438 186.667969 C 148.398438 172.667969 148.398438 158.667969 148.398438 144.667969 C 131.601562 144.667969 114.800781 144.667969 98 144.667969 C 98 158.667969 98 172.667969 98 186.667969 Z M 98 186.667969 "/>
<path style="fill:none;stroke-width:1;stroke-linecap:round;stroke-linejoin:round;stroke:rgb(0%,0%,0%);stroke-opacity:1;stroke-miterlimit:10;" d="M 154 186.667969 C 170.800781 186.667969 187.601562 186.667969 204.398438 186.667969 C 204.398438 172.667969 204.398438 158.667969 204.398438 144.667969 C 187.601562 144.667969 170.800781 144.667969 154 144.667969 C 154 158.667969 154 172.667969 154 186.667969 "/>
<path style=" stroke:none;fill-rule:nonzero;fill:rgb(0%,0%,0%);fill-opacity:1;" d="M 154 186.667969 C 170.800781 186.667969 187.601562 186.667969 204.398438 186.667969 C 204.398438 172.667969 204.398438 158.667969 204.398438 144.667969 C 187.601562 144.667969 170.800781 144.667969 154 144.667969 C 154 158.667969 154 172.667969 154 186.667969 Z M 154 186.667969 "/>
<path style="fill:none;stroke-width:1;stroke-linecap:round;stroke-linejoin:round;stroke:rgb(100%,100%,100%);stroke-opacity:1;stroke-miterlimit:10;" d="M 210 186.667969 C 226.800781 186.667969 243.601562 186.667969 260.398438 186.667969 C 260.398438 172.667969 260.398438 158.667969 260.398438 144.667969 C 243.601562 144.667969 226.800781 144.667969 210 144.667969 C 210 158.667969 210 172.667969 210 186.667969 "/>
<path style=" stroke:none;fill-rule:nonzero;fill:rgb(100%,100%,100%);fill-opacity:1;" d="M 210 186.667969 C 226.800781 186.667969 243.601562 186.667969 260.398438 186.667969 C 260.398438 172.667969 260.398438 158.667969 260.398438 144.667969 C 243.601562 144.667969 226.800781 144.667969 210 144.667969 C 210 158.667969 210 172.667969 210 186.667969 Z M 210 186.667969 "/>
<path style="fill:none;stroke-width:1;stroke-linecap:round;stroke-linejoin:round;stroke:rgb(0%,0%,0%);stroke-opacity:1;stroke-miterlimit:10;" d="M 266 186.667969 C 282.800781 186.667969 299.601562 186.667969 316.398438 186.667969 C 316.398438 172.667969 316.398438 158.667969 316.398438 144.667969 C 299.601562 144.667969 282.800781 144.667969 266 144.667969 C 266 158.667969 266 172.667969 266 186.667969 "/>
<path style=" stroke:none;fill-rule:nonzero;fill:rgb(0%,0%,0%);fill-opacity:1;" d="M 266 186.667969 C 282.800781 186.667969 299.601562 186.667969 316.398438 186.667969 C 316.398438 172.667969 316.398438 158.667969 316.398438 144.667969 C 299.601562 144.667969 282.800781 144.667969 266 144.667969 C 266 158.667969 266 172.667969 266 186.667969 Z M 266 186.667969 "/>
<path style="fill:none;stroke-width:1;stroke-linecap:round;stroke-linejoin:round;stroke:rgb(100%,100%,100%);stroke-opacity:1;stroke-miterlimit:10;" d="M 322 186.667969 C 338.800781 186.667969 355.601562 186.667969 372.398438 186.667969 C 372.398438 172.667969 372.398438 158.667969 372.398438 144.667969 C 355.601562 144.667969 338.800781 144.667969 322 144.667969 C 322 158.667969 322 172.667969 322 186.667969 "/>
<path style=" stroke:none;fill-rule:nonzero;fill:rgb(100%,100%,100%);fill-opacity:1;" d="M 322 186.667969 C 338.800781 186.667969 355.601562 186.667969 372.398438 186.667969 C 372.398438 172.667969 372.398438 158.667969 372.398438 144.667969 C 355.601562 144.667969 338.800781 144.667969 322 144.667969 C 322 158.667969 322 172.667969 322 186.667969 Z M 322 186.667969 "/>
<path style="fill:none;stroke-width:1;stroke-linecap:round;stroke-linejoin:round;stroke:rgb(0%,0%,0%);stroke-opacity:1;stroke-miterlimit:10;" d="M 378 186.667969 C 394.800781 186.667969 411.601562 186.667969 428.398438 186.667969 C 428.398438 172.667969 428.398438 158.667969 428.398438 144.667969 C 411.601562 144.667969 394.800781 144.667969 378 144.667969 C 378 158.667969 378 172.667969 378 186.667969 "/>
<path style=" stroke:none;fill-rule:nonzero;fill:rgb(0%,0%,0%);fill-opacity:1;" d="M 378 186.667969 C 394.800781 186.667969 411.601562 186.667969 428.398438 186.667969 C 428.398438 172.667969 428.398438 158.667969 428.398438 144.667969 C 411.601562 144.667969 394.800781 144.667969 378 144.667969 C 378 158.667969 378 172.667969 378 186.667969 Z M 378 186.667969 "/>
<path style="fill:none;stroke-width:1;stroke-linecap:round;stroke-linejoin:round;stroke:rgb(100%,100%,100%);stroke-opacity:1;stroke-miterlimit:10;" d="M 434 186.667969 C 450.800781 186.667969 467.601562 186.667969 484.398438 186.667969 C 484.398438 172.667969 484.398438 158.667969 484.398438 144.667969 C 467.601562 144.667969 450.800781 144.667969 434 144.667969 C 434 158.667969 434 172.667969 434 186.667969 "/>
<path style=" stroke:none;fill-rule:nonzero;fill:rgb(100%,100%,100%);fill-opacity:1;" d="M 434 186.667969 C 450.800781 186.667969 467.601562 186.667969 484.398438 186.667969 C 484.398438 172.667969 484.398438 158.667969 484.398438 144.667969 C 467.601562 144.667969 450.800781 144.667969 434 144.667969 C 434 158.667969 434 172.667969 434 186.667969 Z M 434 186.667969 "/>
<path style="fill:none;stroke-width:1;stroke-linecap:round;stroke-linejoin:round;stroke:rgb(0%,0%,0%);stroke-opacity:1;stroke-miterlimit:10;" d="M 490 186.667969 C 506.800781 186.667969 523.601562 186.667969 540.398438 186.667969 C 540.398438 172.667969 540.398438 158.667969 540.398438 144.667969 C 523.601562 144.667969 506.800781 144.667969 490 144.667969 C 490 158.667969 490 172.667969 490 186.667969 "/>
<path style=" stroke:none;fill-rule:nonzero;fill:rgb(0%,0%,0%);fill-opacity:1;" d="M 490 186.667969 C 506.800781 186.667969 523.601562 186.667969 540.398438 186.667969 C 540.398438 172.667969 540.398438 158.667969 540.398438 144.667969 C 523.601562 144.667969 506.800781 144.667969 490 144.667969 C 490 158.667969 490 172.667969 490 186.667969 Z M 490 186.667969 "/>
<path style="fill:none;stroke-width:1;stroke-linecap:round;stroke-linejoin:round;stroke:rgb(100%,100%,100%);stroke-opacity:1;stroke-miterlimit:10;" d="M 546 186.667969 C 562.800781 186.667969 579.601562 186.667969 596.398438 186.667969 C 596.398438 172.667969 596.398438 158.667969 596.398438 144.667969 C 579.601562 144.667969 562.800781 144.667969 546 144.667969 C 546 158.667969 546 172.667969 546 186.667969 "/>
<path style=" stroke:none;fill-rule:nonzero;fill:rgb(100%,100%,100%);fill-opacity:1;" d="M 546 186.667969 C 562.800781 186.667969 579.601562 186.667969 596.398438 186.667969 C 596.398438 172.667969 596.398438 158.667969 596.398438 144.667969 C 579.601562 144.667969 562.800781 144.667969 546 144.667969 C 546 158.667969 546 172.667969 546 186.667969 Z M 546 186.667969 "/>
<path style="fill:none;stroke-width:1;stroke-linecap:round;stroke-linejoin:round;stroke:rgb(100%,100%,100%);stroke-opacity:1;stroke-miterlimit:10;" d="M 0 140 C 16.800781 140 33.601562 140 50.398438 140 C 50.398438 126 50.398438 112 50.398438 98 C 33.601562 98 16.800781 98 0 98 C 0 112 0 126 0 140 "/>
<path style=" stroke:none;fill-rule:nonzero;fill:rgb(100%,100%,100%);fill-opacity:1;" d="M 0 140 C 16.800781 140 33.601562 140 50.398438 140 C 50.398438 126 50.398438 112 50.398438 98 C 33.601562 98 16.800781 98 0 98 C 0 112 0 126 0 140 Z M 0 140 "/>
<path style="fill:none;stroke-width:1;stroke-linecap:round;stroke-linejoin:round;stroke:rgb(0%,0%,0%);stroke-opacity:1;stroke-miterlimit:10;" d="M 56 140 C 72.800781 140 89.601562 140 106.398438 140 C 106.398438 126 106.398438 112 106.398438 98 C 89.601562 98 72.800781 98 56 98 C 56 112 56 126 56 140 "/>
<path style=" stroke:none;fill-rule:nonzero;fill:rgb(0%,0%,0%);fill-opacity:1;" d="M 56 140 C 72.800781 140 89.601562 140 106.398438 140 C 106.398438 126 106.398438 112 106.398438 98 C 89.601562 98 72.800781 98 56 98 C 56 112 56 126 56 140 Z M 56 140 "/>
<path style="fill:none;stroke-width:1;stroke-linecap:round;stroke-linejoin:round;stroke:rgb(100%,100%,100%);stroke-opacity:1;stroke-miterlimit:10;" d="M 112 140 C 128.800781 140 145.601562 140 162.398438 140 C 162.398438 126 162.398438 112 162.398438 98 C 145.601562 98 128.800781 98 112 98 C 112 112 112 126 112 140 "/>
<path style=" stroke:none;fill-rule:nonzero;fill:rgb(100%,100%,100%);fill-opacity:1;" d="M 112 140 C 128.800781 140 145.601562 140 162.398438 140 C 162.398438 126 162.398438 112 162.398438 98 C 145.601562 98 128.800781 98 112 98 C 112 112 112 126 112 140 Z M 112 140 "/>
<path style="fill:none;stroke-width:1;stroke-linecap:round;stroke-linejoin:round;stroke:rgb(0%,0%,0%);stroke-opacity:1;stroke-miterlimit:10;" d="M 168 140 C 184.800781 140 201.601562 140 218.398438 140 C 218.398438 126 218.398438 112 218.398438 98 C 201.601562 98 184.800781 98 168 98 C 168 112 168 126 168 140 "/>
<path style=" stroke:none;fill-rule:nonzero;fill:rgb(0%,0%,0%);fill-opacity:1;" d="M 168 140 C 184.800781 140 201.601562 140 218.398438 140 C 218.398438 126 218.398438 112 218.398438 98 C 201.601562 98 184.800781 98 168 98 C 168 112 168 126 168 140 Z M 168 140 "/>
<path style="fill:none;stroke-width:1;stroke-linecap:round;stroke-linejoin:round;stroke:rgb(100%,100%,100%);stroke-opacity:1;stroke-miterlimit:10;" d="M 224 140 C 240.800781 140 257.601562 140 274.398438 140 C 274.398438 126 274.398438 112 274.398438 98 C 257.601562 98 240.800781 98 224 98 C 224 112 224 126 224 140 "/>
<path style=" stroke:none;fill-rule:nonzero;fill:rgb(100%,100%,100%);fill-opacity:1;" d="M 224 140 C 240.800781 140 257.601562 140 274.398438 140 C 274.398438 126 274.398438 112 274.398438 98 C 257.601562 98 240.800781 98 224 98 C 224 112 224 126 224 140 Z M 224 140 "/>
<path style="fill:none;stroke-width:1;stroke-linecap:round;stroke-linejoin:round;stroke:rgb(0%,0%,0%);stroke-opacity:1;stroke-miterlimit:10;" d="M 280 140 C 296.800781 140 313.601562 140 330.398438 140 C 330.398438 126 330.398438 112 330.398438 98 C 313.601562 98 296.800781 98 280 98 C 280 112 280 126 280 140 "/>
<path style=" stroke:none;fill-rule:nonzero;fill:rgb(0%,0%,0%);fill-opacity:1;" d="M 280 140 C 296.800781 140 313.601562 140 330.398438 140 C 330.398438 126 330.398438 112 330.398438 98 C 313.601562 98 296.800781 98 280 98 C 280 112 280 126 280 140 Z M 280 140 "/>
<path style="fill:none;stroke-width:1;stroke-linecap:round;stroke-linejoin:round;stroke:rgb(100%,100%,100%);stroke-opacity:1;stroke-miterlimit:10;" d="M 336 140 C 352.800781 140 369.601562 140 386.398438 140 C 386.398438 126 386.398438 112 386.398438 98 C 369.601562 98 352.800781 98 336 98 C 336 112 336 126 336 140 "/>
<path style=" stroke:none;fill-rule:nonzero;fill:rgb(100%,100%,100%);fill-opacity:1;" d="M 336 140 C 352.800781 140 369.601562 140 386.398438 140 C 386.398438 126 386.398438 112 386.398438 98 C 369.601562 98 352.800781 98 336 98 C 336 112 336 126 336 140 Z M 336 140 "/>
<path style="fill:none;stroke-width:1;stroke-linecap:round;stroke-linejoin:round;stroke:rgb(0%,0%,0%);stroke-opacity:1;stroke-miterlimit:10;" d="M 392 140 C 408.800781 140 425.601562 140 442.398438 140 C 442.398438 126 442.398438 112 442.398438 98 C 425.601562 98 408.800781 98 392 98 C 392 112 392 126 392 140 "/>
<path style=" stroke:none;fill-rule:nonzero;fill:rgb(0%,0%,0%);fill-opacity:1;" d="M 392 140 C 408.800781 140 425.601562 140 442.398438 140 C 442.398438 126 442.398438 112 442.398438 98 C 425.601562 98 408.800781 98 392 98 C 392 112 392 126 392 140 Z M 392 140 "/>
<path style="fill:none;stroke-width:1;stroke-linecap:round;stroke-linejoin:round;stroke:rgb(100%,100%,100%);stroke-opacity:1;stroke-miterlimit:10;" d="M 448 140 C 464.800781 140 481.601562 140 498.398438 140 C 498.398438 126 498.398438 112 498.398438 98 C 481.601562 98 464.800781 98 448 98 C 448 112 448 126 448 140 "/>
<path style=" stroke:none;fill-rule:nonzero;fill:rgb(100%,100%,100%);fill-opacity:1;" d="M 448 140 C 464.800781 140 481.601562 140 498.398438 140 C 498.398438 126 498.398438 112 498.398438 98 C 481.601562 98 464.800781 98 448 98 C 448 112 448 126 448 140 Z M 448 140 "/>
<path style="fill:none;stroke-width:1;stroke-linecap:round;stroke-linejoin:round;stroke:rgb(0%,0%,0%);stroke-opacity:1;stroke-miterlimit:10;" d="M 504 140 C 520.800781 140 537.601562 140 554.398438 140 C 554.398438 126 554.398438 112 554.398438 98 C 537.601562 98 520.800781 98 504 98 C 504 112 504 126 504 140 "/>
<path style=" stroke:none;fill-rule:nonzero;fill:rgb(0%,0%,0%);fill-opacity:1;" d="M 504 140 C 520.800781 140 537.601562 140 554.398438 140 C 554.398438 126 554.398438 112 554.398438 98 C 537.601562 98 520.800781 98 504 98 C 504 112 504 126 504 140 Z M 504 140 "/>
<path style="fill:none;stroke-width:1;stroke-linecap:round;stroke-linejoin:round;stroke:rgb(100%,100%,100%);stroke-opacity:1;stroke-miterlimit:10;" d="M 560 140 C 576.800781 140 593.601562 140 610.398438 140 C 610.398438 126 610.398438 112 610.398438 98 C 593.601562 98 576.800781 98 560 98 C 560 112 560 126 560 140 "/>
<path style="fill:none;stroke-width:1;stroke-linecap:round;stroke-linejoin:round;stroke:rgb(100%,100%,100%);stroke-opacity:1;stroke-miterlimit:10;" d="M -14 93.332031 C 2.800781 93.332031 19.601562 93.332031 36.398438 93.332031 C 36.398438 79.332031 36.398438 65.332031 36.398438 51.332031 C 19.601562 51.332031 2.800781 51.332031 -14 51.332031 C -14 65.332031 -14 79.332031 -14 93.332031 "/>
<path style=" stroke:none;fill-rule:nonzero;fill:rgb(100%,100%,100%);fill-opacity:1;" d="M -14 93.332031 C 2.800781 93.332031 19.601562 93.332031 36.398438 93.332031 C 36.398438 79.332031 36.398438 65.332031 36.398438 51.332031 C 19.601562 51.332031 2.800781 51.332031 -14 51.332031 C -14 65.332031 -14 79.332031 -14 93.332031 Z M -14 93.332031 "/>
<path style="fill:none;stroke-width:1;stroke-linecap:round;stroke-linejoin:round;stroke:rgb(0%,0%,0%);stroke-opacity:1;stroke-miterlimit:10;" d="M 42 93.332031 C 58.800781 93.332031 75.601562 93.332031 92.398438 93.332031 C 92.398438 79.332031 92.398438 65.332031 92.398438 51.332031 C 75.601562 51.332031 58.800781 51.332031 42 51.332031 C 42 65.332031 42 79.332031 42 93.332031 "/>
<path style=" stroke:none;fill-rule:nonzero;fill:rgb(0%,0%,0%);fill-opacity:1;" d="M 42 93.332031 C 58.800781 93.332031 75.601562 93.332031 92.398438 93.332031 C 92.398438 79.332031 92.398438 65.332031 92.398438 51.332031 C 75.601562 51.332031 58.800781 51.332031 42 51.332031 C 42 65.332031 42 79.332031 42 93.332031 Z M 42 93.332031 "/>
<path style="fill:none;stroke-width:1;stroke-linecap:round;stroke-linejoin:round;stroke:rgb(100%,100%,100%);stroke-opacity:1;stroke-miterlimit:10;" d="M 98 93.332031 C 114.800781 93.332031 131.601562 93.332031 148.398438 93.332031 C 148.398438 79.332031 148.398438 65.332031 148.398438 51.332031 C 131.601562 51.332031 114.800781 51.332031 98 51.332031 C 98 65.332031 98 79.332031 98 93.332031 "/>
<path style=" stroke:none;fill-rule:nonzero;fill:rgb(100%,100%,100%);fill-opacity:1;" d="M 98 93.332031 C 114.800781 93.332031 131.601562 93.332031 148.398438 93.332031 C 148.398438 79.332031 148.398438 65.332031 148.398438 51.332031 C 131.601562 51.332031 114.800781 51.332031 98 51.332031 C 98 65.332031 98 79.332031 98 93.332031 Z M 98 93.332031 "/>
<path style="fill:none;stroke-width:1;stroke-linecap:round;stroke-linejoin:round;stroke:rgb(0%,0%,0%);stroke-opacity:1;stroke-miterlimit:10;" d="M 154 93.332031 C 170.800781 93.332031 187.601562 93.332031 204.398438 93.332031 C 204.398438 79.332031 204.398438 65.332031 204.398438 51.332031 C 187.601562 51.332031 170.800781 51.332031 154 51.332031 C 154 65.332031 154 79.332031 154 93.332031 "/>
<path style=" stroke:none;fill-rule:nonzero;fill:rgb(0%,0%,0%);fill-opacity:1;" d="M 154 93.332031 C 170.800781 93.332031 187.601562 93.332031 204.398438 93.332031 C 204.398438 79.332031 204.398438 65.332031 204.398438 51.332031 C 187.601562 51.332031 170.800781 51.332031 154 51.332031 C 154 65.332031 154 79.332031 154 93.332031 Z M 154 93.332031 "/>
<path style="fill:none;stroke-width:1;stroke-linecap:round;stroke-linejoin:round;stroke:rgb(100%,100%,100%);stroke-opacity:1;stroke-miterlimit:10;" d="M 210 93.332031 C 226.800781 93.332031 243.601562 93.332031 260.398438 93.332031 C 260.398438 79.332031 260.398438 65.332031 260.398438 51.332031 C 243.601562 51.332031 226.800781 51.332031 210 51.332031 C 210 65.332031 210 79.332031 210 93.332031 "/>
<path style=" stroke:none;fill-rule:nonzero;fill:rgb(100%,100%,100%);fill-opacity:1;" d="M 210 93.332031 C 226.800781 93.332031 243.601562 93.332031 260.398438 93.332031 C 260.398438 79.332031 260.398438 65.332031 260.398438 51.332031 C 243.601562 51.332031 226.800781 51.332031 210 51.332031 C 210 65.332031 210 79.332031 210 93.332031 Z M 210 93.332031 "/>
<path style="fill:none;stroke-width:1;stroke-linecap:round;stroke-linejoin:round;stroke:rgb(0%,0%,0%);stroke-opacity:1;stroke-miterlimit:10;" d="M 266 93.332031 C 282.800781 93.332031 299.601562 93.332031 316.398438 93.332031 C 316.398438 79.332031 316.398438 65.332031 316.398438 51.332031 C 299.601562 51.332031 282.800781 51.332031 266 51.332031 C 266 65.332031 266 79.332031 266 93.332031 "/>
<path style=" stroke:none;fill-rule:nonzero;fill:rgb(0%,0%,0%);fill-opacity:1;" d="M 266 93.332031 C 282.800781 93.332031 299.601562 93.332031 316.398438 93.332031 C 316.398438 79.332031 316.398438 65.332031 316.398438 51.332031 C 299.601562 51.332031 282.800781 51.332031 266 51.332031 C 266 65.332031 266 79.332031 266 93.332031 Z M 266 93.332031 "/>
<path style="fill:none;stroke-width:1;stroke-linecap:round;stroke-linejoin:round;stroke:rgb(100%,100%,100%);stroke-opacity:1;stroke-miterlimit:10;" d="M 322 93.332031 C 338.800781 93.332031 355.601562 93.332031 372.398438 93.332031 C 372.398438 79.332031 372.398438 65.332031 372.398438 51.332031 C 355.601562 51.332031 338.800781 51.332031 322 51.332031 C 322 65.332031 322 79.332031 322 93.332031 "/>
<path style=" stroke:none;fill-rule:nonzero;fill:rgb(100%,100%,100%);fill-opacity:1;" d="M 322 93.332031 C 338.800781 93.332031 355.601562 93.332031 372.398438 93.332031 C 372.398438 79.332031 372.398438 65.332031 372.398438 51.332031 C 355.601562 51.332031 338.800781 51.332031 322 51.332031 C 322 65.332031 322 79.332031 322 93.332031 Z M 322 93.332031 "/>
<path style="fill:none;stroke-width:1;stroke-linecap:round;stroke-linejoin:round;stroke:rgb(0%,0%,0%);stroke-opacity:1;stroke-miterlimit:10;" d="M 378 93.332031 C 394.800781 93.332031 411.601562 93.332031 428.398438 93.332031 C 428.398438 79.332031 428.398438 65.332031 428.398438 51.332031 C 411.601562 51.332031 394.800781 51.332031 378 51.332031 C 378 65.332031 378 79.332031 378 93.332031 "/>
<path style=" stroke:none;fill-rule:nonzero;fill:rgb(0%,0%,0%);fill-opacity:1;" d="M 378 93.332031 C 394.800781 93.332031 411.601562 93.332031 428.398438 93.332031 C 428.398438 79.332031 428.398438 65.332031 428.398438 51.332031 C 411.601562 51.332031 394.800781 51.332031 378 51.332031 C 378 65.332031 378 79.332031 378 93.332031 Z M 378 93.332031 "/>
<path style="fill:none;stroke-width:1;stroke-linecap:round;stroke-linejoin:round;stroke:rgb(100%,100%,100%);stroke-opacity:1;stroke-miterlimit:10;" d="M 434 93.332031 C 450.800781 93.332031 467.601562 93.332031 484.398438 93.332031 C 484.398438 79.332031 484.398438 65.332031 484.398438 51.332031 C 467.601562 51.332031 450.800781 51.332031 434 51.332031 C 434 65.332031 434 79.332031 434 93.332031 "/>
<path style=" stroke:none;fill-rule:nonzero;fill:rgb(100%,100%,100%);fill-opacity:1;" d="M 434 93.332031 C 450.800781 93.332031 467.601562 93.332031 484.398438 93.332031 C 484.398438 79.332031 484.398438 65.332031 484.398438 51.332031 C 467.601562 51.332031 450.800781 51.332031 434 51.332031 C 434 65.332031 434 79.332031 434 93.332031 Z M 434 93.332031 "/>
<path style="fill:none;stroke-width:1;stroke-linecap:round;stroke-linejoin:round;stroke:rgb(0%,0%,0%);stroke-opacity:1;stroke-miterlimit:10;" d="M 490 93.332031 C 506.800781 93.332031 523.601562 93.332031 540.398438 93.332031 C 540.398438 79.332031 540.398438 65.332031 540.398438 51.332031 C 523.601562 51.332031 506.800781 51.332031 490 51.332031 C 490 65.332031 490 79.332031 490 93.332031 "/>
<path style=" stroke:none;fill-rule:nonzero;fill:rgb(0%,0%,0%);fill-opacity:1;" d="M 490 93.332031 C 506.800781 93.332031 523.601562 93.332031 540.398438 93.332031 C 540.398438 79.332031 540.398438 65.332031 540.398438 51.332031 C 523.601562 51.332031 506.800781 51.332031 490 51.332031 C 490 65.332031 490 79.332031 490 93.332031 Z M 490 93.332031 "/>
<path style="fill:none;stroke-width:1;stroke-linecap:round;stroke-linejoin:round;stroke:rgb(100%,100%,100%);stroke-opacity:1;stroke-miterlimit:10;" d="M 546 93.332031 C 562.800781 93.332031 579.601562 93.332031 596.398438 93.332031 C 596.398438 79.332031 596.398438 65.332031 596.398438 51.332031 C 579.601562 51.332031 562.800781 51.332031 546 51.332031 C 546 65.332031 546 79.332031 546 93.332031 "/>
<path style=" stroke:none;fill-rule:nonzero;fill:rgb(100%,100%,100%);fill-opacity:1;" d="M 546 93.332031 C 562.800781 93.332031 579.601562 93.332031 596.398438 93.332031 C 596.398438 79.332031 596.398438 65.332031 596.398438 51.332031 C 579.601562 51.332031 562.800781 51.332031 546 51.332031 C 546 65.332031 546 79.332031 546 93.332031 Z M 546 93.332031 "/>
<path style="fill:none;stroke-width:1;stroke-linecap:round;stroke-linejoin:round;stroke:rgb(100%,100%,100%);stroke-opacity:1;stroke-miterlimit:10;" d="M -28 46.667969 C -11.199219 46.667969 5.601562 46.667969 22.398438 46.667969 C 22.398438 32.667969 22.398438 18.667969 22.398438 4.667969 C 5.601562 4.667969 -11.199219 4.667969 -28 4.667969 C -28 18.667969 -28 32.667969 -28 46.667969 "/>
<path style=" stroke:none;fill-rule:nonzero;fill:rgb(100%,100%,100%);fill-opacity:1;" d="M -28 46.667969 C -11.199219 46.667969 5.601562 46.667969 22.398438 46.667969 C 22.398438 32.667969 22.398438 18.667969 22.398438 4.667969 C 5.601562 4.667969 -11.199219 4.667969 -28 4.667969 C -28 18.667969 -28 32.667969 -28 46.667969 Z M -28 46.667969 "/>
<path style="fill:none;stroke-width:1;stroke-linecap:round;stroke-linejoin:round;stroke:rgb(0%,0%,0%);stroke-opacity:1;stroke-miterlimit:10;" d="M 28 46.667969 C 44.800781 46.667969 61.601562 46.667969 78.398438 46.667969 C 78.398438 32.667969 78.398438 18.667969 78.398438 4.667969 C 61.601562 4.667969 44.800781 4.667969 28 4.667969 C 28 18.667969 28 32.667969 28 46.667969 "/>
<path style=" stroke:none;fill-rule:nonzero;fill:rgb(0%,0%,0%);fill-opacity:1;" d="M 28 46.667969 C 44.800781 46.667969 61.601562 46.667969 78.398438 46.667969 C 78.398438 32.667969 78.398438 18.667969 78.398438 4.667969 C 61.601562 4.667969 44.800781 4.667969 28 4.667969 C 28 18.667969 28 32.667969 28 46.667969 Z M 28 46.667969 "/>
<path style="fill:none;stroke-width:1;stroke-linecap:round;stroke-linejoin:round;stroke:rgb(100%,100%,100%);stroke-opacity:1;stroke-miterlimit:10;" d="M 84 46.667969 C 100.800781 46.667969 117.601562 46.667969 134.398438 46.667969 C 134.398438 32.667969 134.398438 18.667969 134.398438 4.667969 C 117.601562 4.667969 100.800781 4.667969 84 4.667969 C 84 18.667969 84 32.667969 84 46.667969 "/>
<path style=" stroke:none;fill-rule:nonzero;fill:rgb(100%,100%,100%);fill-opacity:1;" d="M 84 46.667969 C 100.800781 46.667969 117.601562 46.667969 134.398438 46.667969 C 134.398438 32.667969 134.398438 18.667969 134.398438 4.667969 C 117.601562 4.667969 100.800781 4.667969 84 4.667969 C 84 18.667969 84 32.667969 84 46.667969 Z M 84 46.667969 "/>
<path style="fill:none;stroke-width:1;stroke-linecap:round;stroke-linejoin:round;stroke:rgb(0%,0%,0%);stroke-opacity:1;stroke-miterlimit:10;" d="M 140 46.667969 C 156.800781 46.667969 173.601562 46.667969 190.398438 46.667969 C 190.398438 32.667969 190.398438 18.667969 190.398438 4.667969 C 173.601562 4.667969 156.800781 4.667969 140 4.667969 C 140 18.667969 140 32.667969 140 46.667969 "/>
<path style=" stroke:none;fill-rule:nonzero;fill:rgb(0%,0%,0%);fill-opacity:1;" d="M 140 46.667969 C 156.800781 46.667969 173.601562 46.667969 190.398438 46.667969 C 190.398438 32.667969 190.398438 18.667969 190.398438 4.667969 C 173.601562 4.667969 156.800781 4.667969 140 4.667969 C 140 18.667969 140 32.667969 140 46.667969 Z M 140 46.667969 "/>
<path style="fill:none;stroke-width:1;stroke-linecap:round;stroke-linejoin:round;stroke:rgb(100%,100%,100%);stroke-opacity:1;stroke-miterlimit:10;" d="M 196 46.667969 C 212.800781 46.667969 229.601562 46.667969 246.398438 46.667969 C 246.398438 32.667969 246.398438 18.667969 246.398438 4.667969 C 229.601562 4.667969 212.800781 4.667969 196 4.667969 C 196 18.667969 196 32.667969 196 46.667969 "/>
<path style=" stroke:none;fill-rule:nonzero;fill:rgb(100%,100%,100%);fill-opacity:1;" d="M 196 46.667969 C 212.800781 46.667969 229.601562 46.667969 246.398438 46.667969 C 246.398438 32.667969 246.398438 18.667969 246.398438 4.667969 C 229.601562 4.667969 212.800781 4.667969 196 4.667969 C 196 18.667969 196 32.667969 196 46.667969 Z M 196 46.667969 "/>
<path style="fill:none;stroke-width:1;stroke-linecap:round;stroke-linejoin:round;stroke:rgb(0%,0%,0%);stroke-opacity:1;stroke-miterlimit:10;" d="M 252 46.667969 C 268.800781 46.667969 285.601562 46.667969 302.398438 46.667969 C 302.398438 32.667969 302.398438 18.667969 302.398438 4.667969 C 285.601562 4.667969 268.800781 4.667969 252 4.667969 C 252 18.667969 252 32.667969 252 46.667969 "/>
<path style=" stroke:none;fill-rule:nonzero;fill:rgb(0%,0%,0%);fill-opacity:1;" d="M 252 46.667969 C 268.800781 46.667969 285.601562 46.667969 302.398438 46.667969 C 302.398438 32.667969 302.398438 18.667969 302.398438 4.667969 C 285.601562 4.667969 268.800781 4.667969 252 4.667969 C 252 18.667969 252 32.667969 252 46.667969 Z M 252 46.667969 "/>
<path style="fill:none;stroke-width:1;stroke-linecap:round;stroke-linejoin:round;stroke:rgb(100%,100%,100%);stroke-opacity:1;stroke-miterlimit:10;" d="M 308 46.667969 C 324.800781 46.667969 341.601562 46.667969 358.398438 46.667969 C 358.398438 32.667969 358.398438 18.667969 358.398438 4.667969 C 341.601562 4.667969 324.800781 4.667969 308 4.667969 C 308 18.667969 308 32.667969 308 46.667969 "/>
<path style=" stroke:none;fill-rule:nonzero;fill:rgb(100%,100%,100%);fill-opacity:1;" d="M 308 46.667969 C 324.800781 46.667969 341.601562 46.667969 358.398438 46.667969 C 358.398438 32.667969 358.398438 18.667969 358.398438 4.667969 C 341.601562 4.667969 324.800781 4.667969 308 4.667969 C 308 18.667969 308 32.667969 308 46.667969 Z M 308 46.667969 "/>
<path style="fill:none;stroke-width:1;stroke-linecap:round;stroke-linejoin:round;stroke:rgb(0%,0%,0%);stroke-opacity:1;stroke-miterlimit:10;" d="M 364 46.667969 C 380.800781 46.667969 397.601562 46.667969 414.398438 46.667969 C 414.398438 32.667969 414.398438 18.667969 414.398438 4.667969 C 397.601562 4.667969 380.800781 4.667969 364 4.667969 C 364 18.667969 364 32.667969 364 46.667969 "/>
<path style=" stroke:none;fill-rule:nonzero;fill:rgb(0%,0%,0%);fill-opacity:1;" d="M 364 46.667969 C 380.800781 46.667969 397.601562 46.667969 414.398438 46.667969 C 414.398438 32.667969 414.398438 18.667969 414.398438 4.667969 C 397.601562 4.667969 380.800781 4.667969 364 4.667969 C 364 18.667969 364 32.667969 364 46.667969 Z M 364 46.667969 "/>
<path style="fill:none;stroke-width:1;stroke-linecap:round;stroke-linejoin:round;stroke:rgb(100%,100%,100%);stroke-opacity:1;stroke-miterlimit:10;" d="M 420 46.667969 C 436.800781 46.667969 453.601562 46.667969 470.398438 46.667969 C 470.398438 32.667969 470.398438 18.667969 470.398438 4.667969 C 453.601562 4.667969 436.800781 4.667969 420 4.667969 C 420 18.667969 420 32.667969 420 46.667969 "/>
<path style=" stroke:none;fill-rule:nonzero;fill:rgb(100%,100%,100%);fill-opacity:1;" d="M 420 46.667969 C 436.800781 46.667969 453.601562 46.667969 470.398438 46.667969 C 470.398438 32.667969 470.398438 18.667969 470.398438 4.667969 C 453.601562 4.667969 436.800781 4.667969 420 4.667969 C 420 18.667969 420 32.667969 420 46.667969 Z M 420 46.667969 "/>
<path style="fill:none;stroke-width:1;stroke-linecap:round;stroke-linejoin:round;stroke:rgb(0%,0%,0%);stroke-opacity:1;stroke-miterlimit:10;" d="M 476 46.667969 C 492.800781 46.667969 509.601562 46.667969 526.398438 46.667969 C 526.398438 32.667969 526.398438 18.667969 526.398438 4.667969 C 509.601562 4.667969 492.800781 4.667969 476 4.667969 C 476 18.667969 476 32.667969 476 46.667969 "/>
<path style=" stroke:none;fill-rule:nonzero;fill:rgb(0%,0%,0%);fill-opacity:1;" d="M 476 46.667969 C 492.800781 46.667969 509.601562 46.667969 526.398438 46.667969 C 526.398438 32.667969 526.398438 18.667969 526.398438 4.667969 C 509.601562 4.667969 492.800781 4.667969 476 4.667969 C 476 18.667969 476 32.667969 476 46.667969 Z M 476 46.667969 "/>
<path style="fill:none;stroke-width:1;stroke-linecap:round;stroke-linejoin:round;stroke:rgb(100%,100%,100%);stroke-opacity:1;stroke-miterlimit:10;" d="M 532 46.667969 C 548.800781 46.667969 565.601562 46.667969 582.398438 46.667969 C 582.398438 32.667969 582.398438 18.667969 582.398438 4.667969 C 565.601562 4.667969 548.800781 4.667969 532 4.667969 C 532 18.667969 532 32.667969 532 46.667969 "/>
<path style=" stroke:none;fill-rule:nonzero;fill:rgb(100%,100%,100%);fill-opacity:1;" d="M 532 46.667969 C 548.800781 46.667969 565.601562 46.667969 582.398438 46.667969 C 582.398438 32.667969 582.398438 18.667969 582.398438 4.667969 C 565.601562 4.667969 548.800781 4.667969 532 4.667969 C 532 18.667969 532 32.667969 532 46.667969 Z M 532 46.667969 "/>
</g>
</svg>
