<?xml version="1.0" encoding="UTF-8"?>
<svg xmlns="http://www.w3.org/2000/svg" xmlns:xlink="http://www.w3.org/1999/xlink" width="500pt" height="300pt" viewBox="0 0 500 300" version="1.1">
<g id="surface177127">
<path style="fill:none;stroke-width:1;stroke-linecap:round;stroke-linejoin:round;stroke:rgb(100%,64.705882%,0%);stroke-opacity:1;stroke-miterlimit:10;" d="M 175 150 C 175 143.371094 172.367188 137.011719 167.675781 132.324219 C 162.988281 127.632812 156.628906 125 150 125 C 143.371094 125 137.011719 127.632812 132.324219 132.324219 C 127.632812 137.011719 125 143.371094 125 150 C 125 156.628906 127.632812 162.988281 132.324219 167.675781 C 137.011719 172.367188 143.371094 175 150 175 C 156.628906 175 162.988281 172.367188 167.675781 167.675781 C 172.367188 162.988281 175 156.628906 175 150 "/>
<path style=" stroke:none;fill-rule:nonzero;fill:rgb(100%,64.705882%,0%);fill-opacity:1;" d="M 175 150 C 175 143.371094 172.367188 137.011719 167.675781 132.324219 C 162.988281 127.632812 156.628906 125 150 125 C 143.371094 125 137.011719 127.632812 132.324219 132.324219 C 127.632812 137.011719 125 143.371094 125 150 C 125 156.628906 127.632812 162.988281 132.324219 167.675781 C 137.011719 172.367188 143.371094 175 150 175 C 156.628906 175 162.988281 172.367188 167.675781 167.675781 C 172.367188 162.988281 175 156.628906 175 150 Z M 175 150 "/>
<path style="fill:none;stroke-width:1;stroke-linecap:round;stroke-linejoin:round;stroke:rgb(52.941176%,80.784314%,92.156863%);stroke-opacity:1;stroke-miterlimit:10;" d="M 275 150 C 275 139.390625 270.785156 129.21875 263.285156 121.714844 C 255.78125 114.214844 245.609375 110 235 110 C 224.390625 110 214.21875 114.214844 206.714844 121.714844 C 199.214844 129.21875 195 139.390625 195 150 C 195 160.609375 199.214844 170.78125 206.714844 178.285156 C 214.21875 185.785156 224.390625 190 235 190 C 245.609375 190 255.78125 185.785156 263.285156 178.285156 C 270.785156 170.78125 275 160.609375 275 150 "/>
<path style=" stroke:none;fill-rule:nonzero;fill:rgb(52.941176%,80.784314%,92.156863%);fill-opacity:1;" d="M 275 150 C 275 139.390625 270.785156 129.21875 263.285156 121.714844 C 255.78125 114.214844 245.609375 110 235 110 C 224.390625 110 214.21875 114.214844 206.714844 121.714844 C 199.214844 129.21875 195 139.390625 195 150 C 195 160.609375 199.214844 170.78125 206.714844 178.285156 C 214.21875 185.785156 224.390625 190 235 190 C 245.609375 190 255.78125 185.785156 263.285156 178.285156 C 270.785156 170.78125 275 160.609375 275 150 Z M 275 150 "/>
<path style="fill:none;stroke-width:1;stroke-linecap:round;stroke-linejoin:round;stroke:rgb(52.941176%,80.784314%,92.156863%);stroke-opacity:1;stroke-miterlimit:10;" d="M 232.5 76.386719 C 232.5 65.777344 228.285156 55.605469 220.785156 48.105469 C 213.28125 40.601562 203.109375 36.386719 192.5 36.386719 C 181.890625 36.386719 171.71875 40.601562 164.214844 48.105469 C 156.714844 55.605469 152.5 65.777344 152.5 76.386719 C 152.5 86.996094 156.714844 97.171875 164.214844 104.671875 C 171.71875 112.171875 181.890625 116.386719 192.5 116.386719 C 203.109375 116.386719 213.28125 112.171875 220.785156 104.671875 C 228.285156 97.171875 232.5 86.996094 232.5 76.386719 "/>
<path style=" stroke:none;fill-rule:nonzero;fill:rgb(52.941176%,80.784314%,92.156863%);fill-opacity:1;" d="M 232.5 76.386719 C 232.5 65.777344 228.285156 55.605469 220.785156 48.105469 C 213.28125 40.601562 203.109375 36.386719 192.5 36.386719 C 181.890625 36.386719 171.71875 40.601562 164.214844 48.105469 C 156.714844 55.605469 152.5 65.777344 152.5 76.386719 C 152.5 86.996094 156.714844 97.171875 164.214844 104.671875 C 171.71875 112.171875 181.890625 116.386719 192.5 116.386719 C 203.109375 116.386719 213.28125 112.171875 220.785156 104.671875 C 228.285156 97.171875 232.5 86.996094 232.5 76.386719 Z M 232.5 76.386719 "/>
<path style="fill:none;stroke-width:1;stroke-linecap:round;stroke-linejoin:round;stroke:rgb(52.941176%,80.784314%,92.156863%);stroke-opacity:1;stroke-miterlimit:10;" d="M 147.5 76.386719 C 147.5 65.777344 143.285156 55.605469 135.785156 48.105469 C 128.28125 40.601562 118.109375 36.386719 107.5 36.386719 C 96.890625 36.386719 86.71875 40.601562 79.214844 48.105469 C 71.714844 55.605469 67.5 65.777344 67.5 76.386719 C 67.5 86.996094 71.714844 97.171875 79.214844 104.671875 C 86.71875 112.171875 96.890625 116.386719 107.5 116.386719 C 118.109375 116.386719 128.28125 112.171875 135.785156 104.671875 C 143.285156 97.171875 147.5 86.996094 147.5 76.386719 "/>
<path style=" stroke:none;fill-rule:nonzero;fill:rgb(52.941176%,80.784314%,92.156863%);fill-opacity:1;" d="M 147.5 76.386719 C 147.5 65.777344 143.285156 55.605469 135.785156 48.105469 C 128.28125 40.601562 118.109375 36.386719 107.5 36.386719 C 96.890625 36.386719 86.71875 40.601562 79.214844 48.105469 C 71.714844 55.605469 67.5 65.777344 67.5 76.386719 C 67.5 86.996094 71.714844 97.171875 79.214844 104.671875 C 86.71875 112.171875 96.890625 116.386719 107.5 116.386719 C 118.109375 116.386719 128.28125 112.171875 135.785156 104.671875 C 143.285156 97.171875 147.5 86.996094 147.5 76.386719 Z M 147.5 76.386719 "/>
<path style="fill:none;stroke-width:1;stroke-linecap:round;stroke-linejoin:round;stroke:rgb(52.941176%,80.784314%,92.156863%);stroke-opacity:1;stroke-miterlimit:10;" d="M 105 150 C 105 139.390625 100.785156 129.21875 93.285156 121.714844 C 85.78125 114.214844 75.609375 110 65 110 C 54.390625 110 44.21875 114.214844 36.714844 121.714844 C 29.214844 129.21875 25 139.390625 25 150 C 25 160.609375 29.214844 170.78125 36.714844 178.285156 C 44.21875 185.785156 54.390625 190 65 190 C 75.609375 190 85.78125 185.785156 93.285156 178.285156 C 100.785156 170.78125 105 160.609375 105 150 "/>
<path style=" stroke:none;fill-rule:nonzero;fill:rgb(52.941176%,80.784314%,92.156863%);fill-opacity:1;" d="M 105 150 C 105 139.390625 100.785156 129.21875 93.285156 121.714844 C 85.78125 114.214844 75.609375 110 65 110 C 54.390625 110 44.21875 114.214844 36.714844 121.714844 C 29.214844 129.21875 25 139.390625 25 150 C 25 160.609375 29.214844 170.78125 36.714844 178.285156 C 44.21875 185.785156 54.390625 190 65 190 C 75.609375 190 85.78125 185.785156 93.285156 178.285156 C 100.785156 170.78125 105 160.609375 105 150 Z M 105 150 "/>
<path style="fill:none;stroke-width:1;stroke-linecap:round;stroke-linejoin:round;stroke:rgb(52.941176%,80.784314%,92.156863%);stroke-opacity:1;stroke-miterlimit:10;" d="M 147.5 223.613281 C 147.5 213.003906 143.285156 202.828125 135.785156 195.328125 C 128.28125 187.828125 118.109375 183.613281 107.5 183.613281 C 96.890625 183.613281 86.71875 187.828125 79.214844 195.328125 C 71.714844 202.828125 67.5 213.003906 67.5 223.613281 C 67.5 234.222656 71.714844 244.394531 79.214844 251.894531 C 86.71875 259.398438 96.890625 263.613281 107.5 263.613281 C 118.109375 263.613281 128.28125 259.398438 135.785156 251.894531 C 143.285156 244.394531 147.5 234.222656 147.5 223.613281 "/>
<path style=" stroke:none;fill-rule:nonzero;fill:rgb(52.941176%,80.784314%,92.156863%);fill-opacity:1;" d="M 147.5 223.613281 C 147.5 213.003906 143.285156 202.828125 135.785156 195.328125 C 128.28125 187.828125 118.109375 183.613281 107.5 183.613281 C 96.890625 183.613281 86.71875 187.828125 79.214844 195.328125 C 71.714844 202.828125 67.5 213.003906 67.5 223.613281 C 67.5 234.222656 71.714844 244.394531 79.214844 251.894531 C 86.71875 259.398438 96.890625 263.613281 107.5 263.613281 C 118.109375 263.613281 128.28125 259.398438 135.785156 251.894531 C 143.285156 244.394531 147.5 234.222656 147.5 223.613281 Z M 147.5 223.613281 "/>
<path style="fill:none;stroke-width:1;stroke-linecap:round;stroke-linejoin:round;stroke:rgb(52.941176%,80.784314%,92.156863%);stroke-opacity:1;stroke-miterlimit:10;" d="M 232.5 223.613281 C 232.5 213.003906 228.285156 202.828125 220.785156 195.328125 C 213.28125 187.828125 203.109375 183.613281 192.5 183.613281 C 181.890625 183.613281 171.71875 187.828125 164.214844 195.328125 C 156.714844 202.828125 152.5 213.003906 152.5 223.613281 C 152.5 234.222656 156.714844 244.394531 164.214844 251.894531 C 171.71875 259.398438 181.890625 263.613281 192.5 263.613281 C 203.109375 263.613281 213.28125 259.398438 220.785156 251.894531 C 228.285156 244.394531 232.5 234.222656 232.5 223.613281 "/>
<path style=" stroke:none;fill-rule:nonzero;fill:rgb(52.941176%,80.784314%,92.156863%);fill-opacity:1;" d="M 232.5 223.613281 C 232.5 213.003906 228.285156 202.828125 220.785156 195.328125 C 213.28125 187.828125 203.109375 183.613281 192.5 183.613281 C 181.890625 183.613281 171.71875 187.828125 164.214844 195.328125 C 156.714844 202.828125 152.5 213.003906 152.5 223.613281 C 152.5 234.222656 156.714844 244.394531 164.214844 251.894531 C 171.71875 259.398438 181.890625 263.613281 192.5 263.613281 C 203.109375 263.613281 213.28125 259.398438 220.785156 251.894531 C 228.285156 244.394531 232.5 234.222656 232.5 223.613281 Z M 232.5 223.613281 "/>
<path style="fill:none;stroke-width:1;stroke-linecap:round;stroke-linejoin:round;stroke:rgb(100%,64.705882%,0%);stroke-opacity:1;stroke-miterlimit:10;" d="M 400 150 C 400 143.371094 397.367188 137.011719 392.675781 132.324219 C 387.988281 127.632812 381.628906 125 375 125 C 368.371094 125 362.011719 127.632812 357.324219 132.324219 C 352.632812 137.011719 350 143.371094 350 150 C 350 156.628906 352.632812 162.988281 357.324219 167.675781 C 362.011719 172.367188 368.371094 175 375 175 C 381.628906 175 387.988281 172.367188 392.675781 167.675781 C 397.367188 162.988281 400 156.628906 400 150 "/>
<path style=" stroke:none;fill-rule:nonzero;fill:rgb(100%,64.705882%,0%);fill-opacity:1;" d="M 400 150 C 400 143.371094 397.367188 137.011719 392.675781 132.324219 C 387.988281 127.632812 381.628906 125 375 125 C 368.371094 125 362.011719 127.632812 357.324219 132.324219 C 352.632812 137.011719 350 143.371094 350 150 C 350 156.628906 352.632812 162.988281 357.324219 167.675781 C 362.011719 172.367188 368.371094 175 375 175 C 381.628906 175 387.988281 172.367188 392.675781 167.675781 C 397.367188 162.988281 400 156.628906 400 150 Z M 400 150 "/>
<path style="fill:none;stroke-width:1;stroke-linecap:round;stroke-linejoin:round;stroke:rgb(52.941176%,80.784314%,92.156863%);stroke-opacity:1;stroke-miterlimit:10;" d="M 425 150 C 425 147.347656 423.945312 144.804688 422.070312 142.929688 C 420.195312 141.054688 417.652344 140 415 140 C 412.347656 140 409.804688 141.054688 407.929688 142.929688 C 406.054688 144.804688 405 147.347656 405 150 C 405 152.652344 406.054688 155.195312 407.929688 157.070312 C 409.804688 158.945312 412.347656 160 415 160 C 417.652344 160 420.195312 158.945312 422.070312 157.070312 C 423.945312 155.195312 425 152.652344 425 150 "/>
<path style=" stroke:none;fill-rule:nonzero;fill:rgb(52.941176%,80.784314%,92.156863%);fill-opacity:1;" d="M 425 150 C 425 147.347656 423.945312 144.804688 422.070312 142.929688 C 420.195312 141.054688 417.652344 140 415 140 C 412.347656 140 409.804688 141.054688 407.929688 142.929688 C 406.054688 144.804688 405 147.347656 405 150 C 405 152.652344 406.054688 155.195312 407.929688 157.070312 C 409.804688 158.945312 412.347656 160 415 160 C 417.652344 160 420.195312 158.945312 422.070312 157.070312 C 423.945312 155.195312 425 152.652344 425 150 Z M 425 150 "/>
<path style="fill:none;stroke-width:1;stroke-linecap:round;stroke-linejoin:round;stroke:rgb(52.941176%,80.784314%,92.156863%);stroke-opacity:1;stroke-miterlimit:10;" d="M 413.285156 121.714844 C 413.285156 119.0625 412.230469 116.519531 410.355469 114.644531 C 408.480469 112.769531 405.9375 111.714844 403.285156 111.714844 C 400.632812 111.714844 398.089844 112.769531 396.214844 114.644531 C 394.335938 116.519531 393.285156 119.0625 393.285156 121.714844 C 393.285156 124.367188 394.335938 126.910156 396.214844 128.785156 C 398.089844 130.664062 400.632812 131.714844 403.285156 131.714844 C 405.9375 131.714844 408.480469 130.664062 410.355469 128.785156 C 412.230469 126.910156 413.285156 124.367188 413.285156 121.714844 "/>
<path style=" stroke:none;fill-rule:nonzero;fill:rgb(52.941176%,80.784314%,92.156863%);fill-opacity:1;" d="M 413.285156 121.714844 C 413.285156 119.0625 412.230469 116.519531 410.355469 114.644531 C 408.480469 112.769531 405.9375 111.714844 403.285156 111.714844 C 400.632812 111.714844 398.089844 112.769531 396.214844 114.644531 C 394.335938 116.519531 393.285156 119.0625 393.285156 121.714844 C 393.285156 124.367188 394.335938 126.910156 396.214844 128.785156 C 398.089844 130.664062 400.632812 131.714844 403.285156 131.714844 C 405.9375 131.714844 408.480469 130.664062 410.355469 128.785156 C 412.230469 126.910156 413.285156 124.367188 413.285156 121.714844 Z M 413.285156 121.714844 "/>
<path style="fill:none;stroke-width:1;stroke-linecap:round;stroke-linejoin:round;stroke:rgb(52.941176%,80.784314%,92.156863%);stroke-opacity:1;stroke-miterlimit:10;" d="M 385 110 C 385 107.347656 383.945312 104.804688 382.070312 102.929688 C 380.195312 101.054688 377.652344 100 375 100 C 372.347656 100 369.804688 101.054688 367.929688 102.929688 C 366.054688 104.804688 365 107.347656 365 110 C 365 112.652344 366.054688 115.195312 367.929688 117.070312 C 369.804688 118.945312 372.347656 120 375 120 C 377.652344 120 380.195312 118.945312 382.070312 117.070312 C 383.945312 115.195312 385 112.652344 385 110 "/>
<path style=" stroke:none;fill-rule:nonzero;fill:rgb(52.941176%,80.784314%,92.156863%);fill-opacity:1;" d="M 385 110 C 385 107.347656 383.945312 104.804688 382.070312 102.929688 C 380.195312 101.054688 377.652344 100 375 100 C 372.347656 100 369.804688 101.054688 367.929688 102.929688 C 366.054688 104.804688 365 107.347656 365 110 C 365 112.652344 366.054688 115.195312 367.929688 117.070312 C 369.804688 118.945312 372.347656 120 375 120 C 377.652344 120 380.195312 118.945312 382.070312 117.070312 C 383.945312 115.195312 385 112.652344 385 110 Z M 385 110 "/>
<path style="fill:none;stroke-width:1;stroke-linecap:round;stroke-linejoin:round;stroke:rgb(52.941176%,80.784314%,92.156863%);stroke-opacity:1;stroke-miterlimit:10;" d="M 356.714844 121.714844 C 356.714844 119.0625 355.664062 116.519531 353.785156 114.644531 C 351.910156 112.769531 349.367188 111.714844 346.714844 111.714844 C 344.0625 111.714844 341.519531 112.769531 339.644531 114.644531 C 337.769531 116.519531 336.714844 119.0625 336.714844 121.714844 C 336.714844 124.367188 337.769531 126.910156 339.644531 128.785156 C 341.519531 130.664062 344.0625 131.714844 346.714844 131.714844 C 349.367188 131.714844 351.910156 130.664062 353.785156 128.785156 C 355.664062 126.910156 356.714844 124.367188 356.714844 121.714844 "/>
<path style=" stroke:none;fill-rule:nonzero;fill:rgb(52.941176%,80.784314%,92.156863%);fill-opacity:1;" d="M 356.714844 121.714844 C 356.714844 119.0625 355.664062 116.519531 353.785156 114.644531 C 351.910156 112.769531 349.367188 111.714844 346.714844 111.714844 C 344.0625 111.714844 341.519531 112.769531 339.644531 114.644531 C 337.769531 116.519531 336.714844 119.0625 336.714844 121.714844 C 336.714844 124.367188 337.769531 126.910156 339.644531 128.785156 C 341.519531 130.664062 344.0625 131.714844 346.714844 131.714844 C 349.367188 131.714844 351.910156 130.664062 353.785156 128.785156 C 355.664062 126.910156 356.714844 124.367188 356.714844 121.714844 Z M 356.714844 121.714844 "/>
<path style="fill:none;stroke-width:1;stroke-linecap:round;stroke-linejoin:round;stroke:rgb(52.941176%,80.784314%,92.156863%);stroke-opacity:1;stroke-miterlimit:10;" d="M 345 150 C 345 147.347656 343.945312 144.804688 342.070312 142.929688 C 340.195312 141.054688 337.652344 140 335 140 C 332.347656 140 329.804688 141.054688 327.929688 142.929688 C 326.054688 144.804688 325 147.347656 325 150 C 325 152.652344 326.054688 155.195312 327.929688 157.070312 C 329.804688 158.945312 332.347656 160 335 160 C 337.652344 160 340.195312 158.945312 342.070312 157.070312 C 343.945312 155.195312 345 152.652344 345 150 "/>
<path style=" stroke:none;fill-rule:nonzero;fill:rgb(52.941176%,80.784314%,92.156863%);fill-opacity:1;" d="M 345 150 C 345 147.347656 343.945312 144.804688 342.070312 142.929688 C 340.195312 141.054688 337.652344 140 335 140 C 332.347656 140 329.804688 141.054688 327.929688 142.929688 C 326.054688 144.804688 325 147.347656 325 150 C 325 152.652344 326.054688 155.195312 327.929688 157.070312 C 329.804688 158.945312 332.347656 160 335 160 C 337.652344 160 340.195312 158.945312 342.070312 157.070312 C 343.945312 155.195312 345 152.652344 345 150 Z M 345 150 "/>
<path style="fill:none;stroke-width:1;stroke-linecap:round;stroke-linejoin:round;stroke:rgb(52.941176%,80.784314%,92.156863%);stroke-opacity:1;stroke-miterlimit:10;" d="M 356.714844 178.285156 C 356.714844 175.632812 355.664062 173.089844 353.785156 171.214844 C 351.910156 169.335938 349.367188 168.285156 346.714844 168.285156 C 344.0625 168.285156 341.519531 169.335938 339.644531 171.214844 C 337.769531 173.089844 336.714844 175.632812 336.714844 178.285156 C 336.714844 180.9375 337.769531 183.480469 339.644531 185.355469 C 341.519531 187.230469 344.0625 188.285156 346.714844 188.285156 C 349.367188 188.285156 351.910156 187.230469 353.785156 185.355469 C 355.664062 183.480469 356.714844 180.9375 356.714844 178.285156 "/>
<path style=" stroke:none;fill-rule:nonzero;fill:rgb(52.941176%,80.784314%,92.156863%);fill-opacity:1;" d="M 356.714844 178.285156 C 356.714844 175.632812 355.664062 173.089844 353.785156 171.214844 C 351.910156 169.335938 349.367188 168.285156 346.714844 168.285156 C 344.0625 168.285156 341.519531 169.335938 339.644531 171.214844 C 337.769531 173.089844 336.714844 175.632812 336.714844 178.285156 C 336.714844 180.9375 337.769531 183.480469 339.644531 185.355469 C 341.519531 187.230469 344.0625 188.285156 346.714844 188.285156 C 349.367188 188.285156 351.910156 187.230469 353.785156 185.355469 C 355.664062 183.480469 356.714844 180.9375 356.714844 178.285156 Z M 356.714844 178.285156 "/>
<path style="fill:none;stroke-width:1;stroke-linecap:round;stroke-linejoin:round;stroke:rgb(52.941176%,80.784314%,92.156863%);stroke-opacity:1;stroke-miterlimit:10;" d="M 385 190 C 385 187.347656 383.945312 184.804688 382.070312 182.929688 C 380.195312 181.054688 377.652344 180 375 180 C 372.347656 180 369.804688 181.054688 367.929688 182.929688 C 366.054688 184.804688 365 187.347656 365 190 C 365 192.652344 366.054688 195.195312 367.929688 197.070312 C 369.804688 198.945312 372.347656 200 375 200 C 377.652344 200 380.195312 198.945312 382.070312 197.070312 C 383.945312 195.195312 385 192.652344 385 190 "/>
<path style=" stroke:none;fill-rule:nonzero;fill:rgb(52.941176%,80.784314%,92.156863%);fill-opacity:1;" d="M 385 190 C 385 187.347656 383.945312 184.804688 382.070312 182.929688 C 380.195312 181.054688 377.652344 180 375 180 C 372.347656 180 369.804688 181.054688 367.929688 182.929688 C 366.054688 184.804688 365 187.347656 365 190 C 365 192.652344 366.054688 195.195312 367.929688 197.070312 C 369.804688 198.945312 372.347656 200 375 200 C 377.652344 200 380.195312 198.945312 382.070312 197.070312 C 383.945312 195.195312 385 192.652344 385 190 Z M 385 190 "/>
<path style="fill:none;stroke-width:1;stroke-linecap:round;stroke-linejoin:round;stroke:rgb(52.941176%,80.784314%,92.156863%);stroke-opacity:1;stroke-miterlimit:10;" d="M 413.285156 178.285156 C 413.285156 175.632812 412.230469 173.089844 410.355469 171.214844 C 408.480469 169.335938 405.9375 168.285156 403.285156 168.285156 C 400.632812 168.285156 398.089844 169.335938 396.214844 171.214844 C 394.335938 173.089844 393.285156 175.632812 393.285156 178.285156 C 393.285156 180.9375 394.335938 183.480469 396.214844 185.355469 C 398.089844 187.230469 400.632812 188.285156 403.285156 188.285156 C 405.9375 188.285156 408.480469 187.230469 410.355469 185.355469 C 412.230469 183.480469 413.285156 180.9375 413.285156 178.285156 "/>
<path style=" stroke:none;fill-rule:nonzero;fill:rgb(52.941176%,80.784314%,92.156863%);fill-opacity:1;" d="M 413.285156 178.285156 C 413.285156 175.632812 412.230469 173.089844 410.355469 171.214844 C 408.480469 169.335938 405.9375 168.285156 403.285156 168.285156 C 400.632812 168.285156 398.089844 169.335938 396.214844 171.214844 C 394.335938 173.089844 393.285156 175.632812 393.285156 178.285156 C 393.285156 180.9375 394.335938 183.480469 396.214844 185.355469 C 398.089844 187.230469 400.632812 188.285156 403.285156 188.285156 C 405.9375 188.285156 408.480469 187.230469 410.355469 185.355469 C 412.230469 183.480469 413.285156 180.9375 413.285156 178.285156 Z M 413.285156 178.285156 "/>
</g>
</svg>
